<svg width="38" height="36" xmlns="http://www.w3.org/2000/svg"><g fill="#E1E9EC" fill-rule="evenodd"><path d="M27.95 35.487L2.854 29.693a.811.811 0 01-.625-.712L.736 12.215a.794.794 0 01.273-.672.81.81 0 01.71-.175L37 19.514a.805.805 0 01.562.468.79.79 0 01-.049.724l-8.69 14.415a.81.81 0 01-.873.366zm-24.162-7.22l23.949 5.529 7.822-12.973-33.115-7.645 1.344 15.089z"/><path d="M22.28 29.252a.808.808 0 01-.623-.865l1.172-11.138c-.011-.008-.176-3.347 3.244-5.462 1.603-.99 3.146-3.165 2.839-4.956-.342-1.996-2.83-2.975-4.854-3.442l-3.152-.728c-2.023-.467-4.686-.678-5.869.967-1.06 1.473-.63 4.104.378 5.698 2.15 3.402.537 6.328.467 6.45L12.11 26.181a.807.807 0 01-1.035.479.804.804 0 01-.487-1.029l3.828-10.524c.103-.206 1.255-2.364-.37-4.936-1.294-2.046-1.848-5.36-.326-7.476.939-1.305 3.01-2.64 7.549-1.592l3.151.727c4.54 1.048 5.815 3.156 6.088 4.74.441 2.57-1.512 5.306-3.57 6.578-2.62 1.618-2.497 4.116-2.496 4.141l-1.174 11.27a.805.805 0 01-.987.693z"/><path d="M13.574 27.242L8.847 26.15a.806.806 0 01-.608-.962.806.806 0 01.968-.597l4.727 1.09a.807.807 0 01.607.962.806.806 0 01-.967.598zm11.027 2.546l-4.727-1.092a.807.807 0 01-.607-.96.807.807 0 01.967-.599l4.727 1.092c.435.1.707.532.608.961a.805.805 0 01-.968.598z"/></g></svg>