<svg width="37" height="37" xmlns="http://www.w3.org/2000/svg"><g fill="#E1E9EC" fill-rule="evenodd"><path d="M7.24 37H.803A.806.806 0 010 36.196V29.76c0-.443.36-.804.804-.804H7.24c.444 0 .804.361.804.804v6.435c0 .442-.36.804-.804.804zm-5.631-1.609h4.826v-4.826H1.609v4.826zM36.196 8.043H29.76a.806.806 0 01-.804-.804V.804c0-.444.361-.804.804-.804h6.435c.442 0 .804.36.804.804V7.24a.806.806 0 01-.804.804zm-5.63-1.608h4.825V1.609h-4.826v4.826z"/><path d="M4.826 30.565H3.217v-1.514c0-14.243 11.59-25.834 25.834-25.834h1.514v1.61h-1.514c-13.583 0-24.225 10.639-24.225 24.224v1.514z"/></g></svg>