<svg width="41" height="26" xmlns="http://www.w3.org/2000/svg"><g fill="#E1E9EC" fill-rule="evenodd"><path d="M20.05 21.13l-4.876-9.993 1.423-.695 4.876 9.993-1.423.695zM1.33 24.705a.793.793 0 01-.09-1.46l4.783-2.33a.794.794 0 011.057.364.793.793 0 01-.364 1.059l-4.783 2.33a.788.788 0 01-.603.037z"/><path d="M8.462 25.172a.794.794 0 01-.454-.4L4.9 18.394a.791.791 0 01.364-1.057l5.578-2.72a.797.797 0 011.057.364.793.793 0 01-.364 1.058l-4.87 2.378 2.416 4.956L13.952 21a.795.795 0 011.055.363.793.793 0 01-.364 1.059l-5.577 2.717a.807.807 0 01-.604.033z"/><path d="M15.617 23.657a.79.79 0 01-.454-.4l-4.665-9.568a.791.791 0 01.364-1.057L34.774.969c.215-.105.568-.197 1.021-.041 2.035.7 4.949 6.801 5.103 9.277.07 1.107-.378 1.565-.764 1.753l-23.916 11.66a.767.767 0 01-.6.04zm-3.35-9.951l3.973 8.147 23.078-11.256c.06-.374-.123-1.633-1.11-3.803-1.13-2.49-2.349-4.07-2.86-4.343L12.267 13.706z"/></g></svg>