<svg width="34" height="34" xmlns="http://www.w3.org/2000/svg"><g fill="#E1E9EC" fill-rule="evenodd"><path d="M.97 33.475a.805.805 0 01-.878-.938L5.397 1.004a.787.787 0 01.914-.652c.432.076.72.493.645.932L1.65 32.816a.79.79 0 01-.679.66z"/><path d="M19.498 31.2a.795.795 0 01-.822-.476L5.898 1.413a.81.81 0 01.4-1.061.789.789 0 011.045.411l12.778 29.313a.805.805 0 01-.623 1.124zm7.574-1.677c-1.137.14-2.27.087-3.267-.224-1.71-.534-2.779-1.791-3.018-3.543-.18-1.343.154-2.534.997-3.54 2.586-3.092 9.257-3.278 9.543-3.286.435-.011.8.343.812.786a.791.791 0 01-.77.824c-.061 0-6.25.176-8.38 2.722-.548.653-.754 1.402-.635 2.28.156 1.136.78 1.864 1.91 2.219 2.438.76 6.207-.505 7.578-2.076a.782.782 0 011.117-.063.815.815 0 01.068 1.137c-1.17 1.334-3.566 2.47-5.955 2.764z"/><path d="M15.512 23.64L2.955 25.182a.798.798 0 01-.883-.702.798.798 0 01.687-.896l12.557-1.541a.8.8 0 01.883.702.798.798 0 01-.687.895zm17.364 5.167a.798.798 0 01-.883-.703L30.527 16.17c-.639-.767-1.407-1.186-2.343-1.28-2.981-.303-6.486 2.776-6.524 2.805a.779.779 0 01-1.114-.08.806.806 0 01.073-1.132c.164-.146 4.05-3.56 7.71-3.196 1.438.145 2.642.839 3.576 2.063a.818.818 0 01.162.396l1.493 12.163a.797.797 0 01-.684.899z"/></g></svg>