<svg width="34" height="34" xmlns="http://www.w3.org/2000/svg"><g fill="#E1E9EC" fill-rule="evenodd"><path d="M15.047 33.387L1.453 28.97a.797.797 0 01-.51-1.002L8.317 5.273a.796.796 0 011.001-.512L22.913 9.18a.796.796 0 01.51 1.001l-7.375 22.696a.797.797 0 01-1.001.511zM2.699 27.702l12.084 3.927 6.883-21.183L9.582 6.52 2.699 27.702z"/><path d="M17.89 9.22l-4.532-1.473a.796.796 0 01-.51-1.002L14.816.693a.796.796 0 011.001-.511l4.532 1.472a.796.796 0 01.51 1.002L18.89 8.708a.796.796 0 01-1.001.511zm-3.285-2.74l3.021.98 1.475-4.538-3.021-.982-1.475 4.54zM19.7 16.498L7.616 12.572a.796.796 0 01.491-1.513l12.084 3.926a.796.796 0 01-.491 1.513zM16.258 27.09L4.174 23.163a.797.797 0 01-.51-1.002.798.798 0 011.002-.51l12.084 3.926a.798.798 0 01.51 1.002.797.797 0 01-1.002.51zm13.892-6.465a.797.797 0 01-.482-.441L23.904 6.759a.805.805 0 01.236-.937l4.571-3.639a.798.798 0 011.116.127.804.804 0 01-.125 1.12l-4.098 3.257 5.526 12.87a.797.797 0 01-.98 1.068zm3.238-15.571a.795.795 0 11-1.512-.489.795.795 0 011.512.49z"/><path d="M30.894 7.59a.795.795 0 11-1.512-.49.795.795 0 011.512.49z"/></g></svg>