<svg width="34" height="30" xmlns="http://www.w3.org/2000/svg"><g fill="#E1E9EC" fill-rule="evenodd"><path d="M20.204 7.895h-6.476a.801.801 0 01-.81-.79V.79c0-.435.365-.789.81-.789h6.476c.445 0 .81.354.81.79v6.315c0 .436-.365.79-.81.79zm-5.667-1.58h4.858V1.58h-4.858v4.737zM3.204 3.158h9.714v1.579H3.204v-1.58zm17.81 0h9.714v1.579h-9.714v-1.58z"/><path d="M31.571 6.316c-1.34 0-2.428-1.063-2.428-2.369 0-1.305 1.088-2.368 2.428-2.368C32.91 1.579 34 2.642 34 3.947c0 1.306-1.088 2.369-2.429 2.369zm0-3.158a.802.802 0 00-.81.79c0 .434.365.789.81.789.442 0 .81-.355.81-.79a.802.802 0 00-.81-.79zM2.429 6.316C1.088 6.316 0 5.253 0 3.947 0 2.642 1.088 1.58 2.429 1.58c1.337 0 2.428 1.063 2.428 2.368 0 1.306-1.088 2.369-2.428 2.369zm0-3.158a.802.802 0 00-.81.79c0 .434.364.789.81.789.442 0 .81-.355.81-.79a.802.802 0 00-.81-.79zm30.459 15.297a.802.802 0 01-.81-.79c0-6.409-4.689-11.856-11.144-12.96a.79.79 0 01-.657-.914.806.806 0 01.936-.641c7.235 1.236 12.484 7.34 12.484 14.514a.8.8 0 01-.81.79zm-31.845 0a.801.801 0 01-.81-.79c0-7.173 5.25-13.282 12.486-14.513a.805.805 0 01.936.637.793.793 0 01-.657.915C6.539 5.807 1.852 11.258 1.852 17.665a.8.8 0 01-.81.79zm21.185 10.46a.906.906 0 01-.2-.025.783.783 0 01-.582-.958l1.933-7.463-6.411-9.555-6.413 9.555 1.934 7.463a.788.788 0 01-.584.958.806.806 0 01-.983-.57l-2.024-7.797a.762.762 0 01.107-.625l7.286-10.855c.298-.446 1.055-.446 1.353 0l7.286 10.855a.748.748 0 01.107.625l-2.024 7.797a.808.808 0 01-.785.595z"/><path d="M16.966 24.474a.802.802 0 01-.81-.79V11.053c0-.436.365-.79.81-.79.445 0 .81.354.81.79v12.631c0 .434-.365.79-.81.79z"/><path d="M16.966 27.534c-1.339 0-2.429-1.065-2.429-2.369 0-1.307 1.09-2.368 2.429-2.368 1.34 0 2.429 1.06 2.429 2.368 0 1.304-1.088 2.369-2.429 2.369zm0-3.158a.803.803 0 00-.81.79c0 .433.365.789.81.789.445 0 .81-.356.81-.79a.802.802 0 00-.81-.79zM24.252 30H9.68a.802.802 0 01-.81-.79c0-.434.365-.789.81-.789h14.572c.445 0 .81.355.81.79a.802.802 0 01-.81.789z"/></g></svg>