<svg version="1.1" id="Layer_1" xmlns="http://www.w3.org/2000/svg" x="0" y="0" viewBox="0 0 30 30" xml:space="preserve"><style>.st0{display:none}.st1{fill:#009eff}.st1,.st2{display:inline}.st3{fill:#009eff}.st5{fill:#1658ff}</style><g id="_x31_" class="st0"><path class="st1" d="M27 29.4H3.5V.3h17.7V1H4.1v27.7h22.2V6.3h.7z"/><path class="st1" d="M26.9 6.9h-6l-.3-.3v-6l.6-.2L27 6.2l-.1.7zm-5.7-.7h4.9l-4.9-4.9v4.9z"/><g class="st2"><path class="st3" d="M15.8 25.5h-.2c-1.3-.1-2.1-.9-2.1-2.2 0-1.1-.1-1.6-1-2.5l-.2-.2.2-.2c.9-.9.9-1.4.9-2.5 0-1.3.8-2.1 2.1-2.2h.6v.7h-.6c-.7 0-1.4.3-1.5 1.5 0 1.2-.1 1.8-.9 2.7.8.9.9 1.6.9 2.7 0 1.2.8 1.5 1.5 1.5h.6v.7h-.3zm3.5 0h-.5v-.7h.6c.7 0 1.4-.3 1.5-1.5 0-1.2.1-1.8.9-2.7-.7-1-.8-1.6-.8-2.8s-.8-1.5-1.5-1.5h-.6v-.7h.6c1.3.1 2.1.9 2.1 2.2 0 1.1.1 1.6.9 2.5l.2.2-.2.2c-.9.9-.9 1.4-1 2.5 0 1.3-.8 2.1-2.1 2.2.1.1 0 .1-.1.1z"/></g><g class="st2"><path class="st3" d="M6.8 7.8l.5-.5c.3.4.6.5.9.5.6 0 .8-.3.8-1V4.6H7.1v-.7h2.7V7c0 .9-.4 1.6-1.6 1.6-.5-.1-1.1-.3-1.4-.8zm4.1.1l.5-.6c.3.3.8.5 1.3.5s.8-.2.8-.6-.3-.5-.8-.7l-.7-.2c-.5-.2-1-.5-1-1.2s.7-1.3 1.6-1.3c.6 0 1.1.2 1.5.6l-.4.5c-.3-.2-.6-.4-1.1-.4-.4 0-.7.2-.7.5 0 .4.4.5.8.6l.6.4c.6.2 1 .6 1 1.2 0 .7-.6 1.4-1.7 1.4-.7-.1-1.3-.3-1.7-.7z"/></g></g><g id="Layer_2_1_" class="st0"><g class="st2"><path class="st3" d="M6 5.2L3.4 2.6.9 5.1l-.4-.4 2.9-2.9 3 3z"/></g><g class="st2"><path class="st3" d="M3.1 2.2h.6v.6h-.6zm6.4 16.3v-.6c.4 0 .7-.1 1.1-.1l.1.5c-.4.1-.8.2-1.2.2zm-1.1-.1c-.4-.1-.8-.2-1.1-.3l.2-.5c.3.1.7.2 1 .3l-.1.5zm3.4-.4l-.2-.5c.3-.1.6-.3.9-.5l.3.5c-.3.1-.6.3-1 .5zm-5.6-.4c-.3-.2-.6-.4-.9-.7l.4-.4.9.6-.4.5zm7.5-.9l-.4-.4c.3-.2.5-.5.7-.8l.5.3c-.3.3-.5.6-.8.9zm-9.3-.6c-.2-.3-.4-.6-.6-1l.5-.3.6.9-.5.4zM15 14.8l-.5-.2c.1-.3.3-.7.3-1l.5.1c0 .3-.1.7-.3 1.1zM3.4 14c-.1-.4-.2-.8-.2-1.1l.6-.1c0 .4.1.7.2 1l-.6.2zm12.2-1.5H15v-1.1h.6v1.1zm-12.5-.8v-1.1h.6v1.1h-.6zm12.5-1.4H15V9.2h.6v1.1zM3.7 9.5h-.6V8.4h.6v1.1zM21.8 9h-.6V7.9l.5-.1V9h.1zm-6.2-.9L15 8c0-.4.2-.8.3-1.1l.5.2c-.1.3-.2.6-.2 1zM3.7 7.2h-.6V6.1h.6v1.1zm17.1-.3c-.2-.3-.4-.6-.7-.8l.4-.4c.3.3.6.6.8.9l-.5.3zm-4.3-.6l-.4-.4c.3-.3.6-.5 1-.7l.2.5c-.3.2-.6.4-.8.6zm2.8-.6c-.3-.1-.7-.2-1-.1V5c.4 0 .8 0 1.2.2l-.2.5zM3.7 5h-.6V3.9h.6V5zm17.5 5.1h.6v.6h-.6z"/></g><g class="st2"><path class="st3" d="M21.5 28.5c0-2-1.9-3.8-5.7-5.6-.3-.1-.4-.3-.4-.6 0-.4.2-.8.7-1 .7-.5 1.7-.5 2.6-.1.6.3 1 .5 1.3.7v-8c.1-.7.7-1.3 1.4-1.3s1.3.6 1.4 1.3v6.3h-.6v-6.3c0-.4-.4-.8-.8-.8s-.8.4-.8.8v9l-.4-.3s-.6-.4-1.7-.9-1.9-.1-2.1 0c-.3.2-.4.4-.4.5 0 0 0 .1.1.1 4 1.9 6 3.9 6 6.1l-.6.1z"/></g><g class="st2"><path class="st3" d="M25 18.3h-.6v-.8c0-.4-.4-.8-.8-.8s-.8.4-.8.8h-.6c.1-.7.7-1.3 1.4-1.3s1.3.6 1.4 1.3v.8z"/></g><g class="st2"><path class="st3" d="M26.7 20.2v-1.8c0-.4-.4-.8-.8-.8s-.8.3-.8.7v1.9h-.6.3-.3v-1.9c.1-.7.7-1.2 1.4-1.2s1.3.6 1.4 1.3v1.9l-.6-.1z"/></g><g class="st2"><path class="st3" d="M29.5 28.5h-.6v-9.1c0-.4-.4-.8-.8-.8s-.8.4-.8.8h-.6c.1-.7.7-1.3 1.4-1.3s1.3.6 1.4 1.3v9.1z"/></g><g class="st2"><path class="st3" d="M21.7 27.9h7.5v.6h-7.5z"/></g></g><g id="Layer_3" class="st0"><g class="st2"><path class="st3" d="M11.7 22h-.6v-1.6c0-.3-.3-.8-.8-1.4-.4-.5-.8-1.2-1.2-2.1-.8-1.5-.7-2.9-.7-3 0-3.7 3-6.7 6.7-6.7v.6c-3.4 0-6.2 2.8-6.2 6.2 0 0-.1 1.4.6 2.7.4.8.9 1.5 1.2 2 .5.7.8 1.2.8 1.7.2 0 .2 1.6.2 1.6z"/></g><g class="st2"><path class="st3" d="M18.7 22v-1.6c0-.5.4-1 .9-1.8.3-.5.8-1.2 1.2-2 .7-1.3.6-2.7.6-2.7 0-3.4-2.8-6.2-6.2-6.2v-.5c3.7 0 6.7 3 6.7 6.7 0 0 .1 1.5-.7 3-.4.9-.9 1.5-1.2 2.1-.4.7-.7 1.1-.8 1.5V22h-.5z"/></g><g class="st2"><path class="st3" d="M17.7 26.4h-5c-.9 0-1.5-.7-1.5-1.6v-2.9h.6v2.9c0 .5.4 1 1 1h5c.5 0 1-.4 1-1v-2.9h.6v2.9c-.2.9-.9 1.6-1.7 1.6z"/></g><g class="st2"><path class="st3" d="M11.5 20.8h7.4v.6h-7.4z"/></g><g class="st2"><path class="st3" d="M11.4 23H19v.6h-7.6z"/></g><g class="st2"><path class="st3" d="M15.2 28.8c-1.5 0-2.7-1.2-2.7-2.7h.5c0 1.2 1 2.1 2.1 2.1s2.1-1 2.1-2.1h.6c0 1.5-1.2 2.7-2.6 2.7z"/></g><g class="st2"><path class="st3" d="M15.2 4.3c-.2 0-.3-.1-.3-.3V.9c0-.2.1-.3.3-.3s.3.1.3.3V4c-.1.2-.2.3-.3.3z"/></g><g class="st2"><path class="st3" d="M4.5 14.3h-3c-.2 0-.3-.1-.3-.3s.1-.3.3-.3h3c.2 0 .3.1.3.3 0 .1-.2.3-.3.3zm3-7.1c-.1 0-.1 0-.2-.1L5.2 4.9c-.2-.1-.2-.2 0-.4.1-.1.3-.1.4 0l2.1 2.1c.1.1.1.3 0 .4 0 .1-.1.2-.2.2zM5.3 23.5c-.1 0-.1 0-.2-.1s-.1-.3 0-.4l2.1-2.1c.1-.1.3-.1.4 0s.1.3 0 .4l-2.1 2.1c-.1.1-.1.1-.2.1z"/></g><g class="st2"><path class="st3" d="M28.8 14.3h-3c-.2 0-.3-.1-.3-.3s.1-.3.3-.3h3c.2 0 .3.1.3.3 0 .1-.1.3-.3.3zm-6-7.1c-.1 0-.1 0-.2-.1s-.1-.3 0-.4l2.1-2.1c.1-.1.3-.1.4 0s.1.3 0 .4L23 7.1c-.1 0-.1.1-.2.1zM25 23.5c-.1 0-.1 0-.2-.1l-2.1-2.1c-.1-.1-.1-.3 0-.4s.3-.1.4 0l2.1 2.1c.1.1.1.3 0 .4-.1.1-.1.1-.2.1z"/></g></g><g id="Layer_4" class="st0"><g class="st2"><path class="st3" d="M17.4 29.3c-.4 0-.7-.2-.8-.6L10.3 12c-.2-.5.1-1 .5-1.1l.8-.3c.2-.1.5-.1.7 0s.4.3.4.5L18.4 28c.2.5-.1.9-.5 1.1l-.2.1c-.1.1-.2.1-.3.1zm-1.7-4.7l1.5 4c0 .1.1.1.1.2h.2l.2-.1c.1 0 .2-.2.2-.3l-5.7-16.9c0-.1-.1-.1-.1-.1h-.2l-.8.3c-.1 0-.2.2-.2.3l4.8 12.6z"/><path transform="rotate(-19.369 12.351 14.02)" class="st3" d="M11.402 13.719h1.9v.6h-1.9z"/><path transform="rotate(-19.369 13.206 16.409)" class="st3" d="M12.307 16.108h1.8v.6h-1.8z"/><path class="st3" d="M10.5 11.2c-.4 0-.7-.1-.9-.3-.6-.5-.8-1.3-.7-2.6 0-.9.4-2.4.4-2.4l.1-.5.4.3c.1 0 1.3 1 1.9 1.6.5.7 1.1 1.7.9 2.5-.1.5-.5.9-1.1 1.1l-.3.1c-.2.1-.5.2-.7.2zm-.8-4.7c-.1.5-.2 1.2-.2 1.8 0 1.1.1 1.8.5 2.1.2.2.6.2 1 .1l.2-.1c.5-.2.8-.4.8-.7.1-.5-.2-1.2-.9-2-.3-.4-1-.9-1.4-1.2z"/></g><g class="st2"><path class="st3" d="M24.7 25.1H17v-.6h7V2.4H6.8v22.1h8.4v.6h-9V1.8h18.5z"/></g><g class="st2"><path transform="rotate(-.55 7.802 2.12)" class="st3" d="M7.501.7h.6v2.7h-.6z"/><path transform="matrix(1 -.0096 .0096 1 -.02 .087)" class="st3" d="M8.801.701h.6v2.7h-.6z"/><path transform="matrix(1 -.0096 .0096 1 -.02 .118)" class="st3" d="M12.002.7h.6v2.7h-.6z"/><path transform="matrix(1 -.0095 .0095 1 -.019 .13)" class="st3" d="M13.302.701h.6v2.7h-.6z"/><path transform="matrix(1 -.0096 .0096 1 -.019 .16)" class="st3" d="M16.302.7h.6v2.7h-.6z"/><path transform="matrix(1 -.0096 .0096 1 -.019 .172)" class="st3" d="M17.602.7h.6v2.7h-.6z"/><path transform="rotate(-.55 21 2.049)" class="st3" d="M20.702.7h.6v2.7h-.6z"/><path transform="matrix(1 -.0096 .0096 1 -.019 .214)" class="st3" d="M22.002.7h.6v2.7h-.6z"/></g><g class="st2"><path class="st3" d="M19.3 10.5c-1.1 0-2.1-.9-2.1-2.1s.9-2.1 2.1-2.1 2.1.9 2.1 2.1-1 2.1-2.1 2.1zm0-3.5c-.8 0-1.5.7-1.5 1.5s.7 1.5 1.5 1.5 1.5-.7 1.5-1.5c-.1-.9-.7-1.5-1.5-1.5z"/></g><g class="st2"><path class="st3" d="M19.3 16.2c-1.1 0-2.1-.9-2.1-2.1s.9-2.1 2.1-2.1 2.1.9 2.1 2.1-1 2.1-2.1 2.1zm0-3.5c-.8 0-1.5.7-1.5 1.5s.7 1.5 1.5 1.5 1.5-.7 1.5-1.5-.7-1.5-1.5-1.5z"/></g><g class="st2"><path class="st3" d="M19.3 21.8c-1.1 0-2.1-.9-2.1-2.1s.9-2.1 2.1-2.1 2.1.9 2.1 2.1-1 2.1-2.1 2.1zm0-3.5c-.8 0-1.5.7-1.5 1.5s.7 1.5 1.5 1.5 1.5-.7 1.5-1.5-.7-1.5-1.5-1.5z"/></g></g><g id="Layer_5" class="st0"><g class="st2"><path class="st3" d="M4.7 24.7v-6.6H1.1v-16h23.5v16H9.4l-4.7 6.6zm-2.9-7.3h3.6v5.1l3.7-5.1h14.8V2.8H1.8v14.6z"/></g><g class="st2"><path class="st3" d="M8.4 11.6c-1 0-1.8-.8-1.8-1.8S7.4 8 8.4 8s1.8.8 1.8 1.8-.8 1.8-1.8 1.8zm0-2.8c-.6 0-1 .5-1 1 0 .6.5 1 1 1 .6 0 1-.5 1-1 .1-.5-.4-1-1-1zm4.6 2.8c-1 0-1.8-.8-1.8-1.8S12 8 13 8s1.8.8 1.8 1.8-.8 1.8-1.8 1.8zm0-2.8c-.6 0-1 .5-1 1 0 .6.5 1 1 1 .6 0 1-.5 1-1 .1-.5-.4-1-1-1zm4.6 2.8c-1 0-1.8-.8-1.8-1.8S16.6 8 17.6 8s1.8.8 1.8 1.8-.8 1.8-1.8 1.8zm0-2.8c-.6 0-1 .5-1 1 0 .6.5 1 1 1 .6 0 1-.5 1-1 .1-.5-.4-1-1-1z"/></g><g class="st2"><path class="st3" d="M25.3 27.9l-4.7-6.6H9.4v-.7h11.5l3.7 5.1v-5.1h3.6V6h-1.8v-.7h2.5v16h-3.6z"/></g></g><g id="Layer_6" class="st0"><g class="st2"><path class="st3" d="M21.5 10.1c-.7 0-1.3-.3-1.8-.7l.4-.5c.4.4.9.5 1.4.5s1-.2 1.4-.5l.4.5c-.5.5-1.1.7-1.8.7z"/><path class="st3" d="M29.3 19.9h-5.6v-2.2h-5v-3.1h-2.8l.1-.4s.4-1.4 1.5-5.5c0-3.2 2.6-5.8 5.8-5.8s5.7 2.5 5.8 5.7v.1l.2 11.2zm-4.9-.6h4.4V8.5c-.1-2.8-2.4-5.1-5.2-5.1-2.9 0-5.2 2.3-5.2 5.2v.1c-.8 3-1.2 4.5-1.4 5.2h2.6V17h5l-.2 2.3z"/></g><g class="st2"><path class="st3" d="M8.7 17.4c-.7 0-1.3-.3-1.8-.7l.4-.5c.4.4.9.5 1.4.5s1-.2 1.4-.5l.4.5c-.5.5-1.2.7-1.8.7z"/><path class="st3" d="M6.5 27.2H.9V15.8c.1-3.1 2.7-5.7 5.8-5.7 3.2 0 5.8 2.6 5.8 5.8 1.1 4.1 1.5 5.5 1.5 5.5l.1.4h-2.8v3.1h-5l.2 2.3zm-5-.6h4.4v-2.2h5v-3.1h2.6c-.2-.7-.6-2.2-1.4-5.2V16c0-2.9-2.3-5.2-5.2-5.2-2.8 0-5.1 2.3-5.2 5.1l-.2 10.7z"/></g><g class="st2"><path class="st3" d="M6.8 8.3h-.7V6.1s-.1-.7.4-1.3c.3-.3.8-.5 1.3-.5h7.1V5h-7c-.4 0-.7.1-.9.3-.3.3-.2.8-.2.8v2.2zm9-4h.9v.6h-.9z"/><path class="st3" d="M6.4 9.1L4.9 7.6l.4-.5 1.1 1.2 1.1-1.2.5.5z"/></g><g class="st2"><path class="st3" d="M25.1 25.5h-8.9v-.6h8.9c.4 0 .7-.1.9-.3.3-.3.3-.8.3-.8v-2.2h.6v2.1s.1.7-.4 1.3c-.3.3-.8.5-1.4.5zm-10.7-.6h.9v.6h-.9z"/><path class="st3" d="M27.7 22.7l-1.1-1.1-1.1 1.1-.4-.4 1.5-1.6 1.5 1.6z"/></g></g><path fill="#fff" d="M4.616 4.335h20.868v21.431H4.616z"/><path class="st5" d="M8.951 12h-.81V8.198h3.828v.81H8.951zm12.947 9.889h-3.829v-.81h3.019v-2.992h.81zm-9.942.026H8.154v-3.828h.81v3.018h2.992zm10.003-9.902h-.81V8.995h-2.992v-.81h3.802z"/><path transform="rotate(-45.001 15.002 15.06)" class="st5" d="M14.597 5.929h.81v18.263h-.81z"/><path transform="rotate(-45.001 15.075 15.07)" class="st5" d="M5.913 14.664h18.325v.81H5.913z"/><path d="M29.069 29.069h-1.215v-.81h.405v-.406h.81zm-2.922 0H24.44v-.81h1.707v.81zm-3.415 0h-1.707v-.81h1.707v.81zm-3.414 0h-1.707v-.81h1.707v.81zm-3.414 0h-1.707v-.81h1.707v.81zm-3.415 0h-1.707v-.81h1.707v.81zm-3.414 0H7.368v-.81h1.707v.81zm-3.414 0H3.954v-.81h1.707v.81zm-3.415 0H1.031v-1.216h.81v.406h.405zm-.405-2.922h-.81V24.44h.81v1.707zm0-3.415h-.81v-1.707h.81v1.707zm0-3.414h-.81v-1.707h.81v1.707zm0-3.415h-.81v-1.707h.81v1.707zm0-3.414h-.81v-1.707h.81v1.707zm0-3.414h-.81V7.368h.81v1.707zm0-3.414h-.81V3.953h.81v1.708zm0-3.414h-.81V1.031h1.215v.81h-.405zm24.306-.406H24.44v-.81h1.707v.81zm-3.415 0h-1.707v-.81h1.707v.81zm-3.414 0h-1.707v-.81h1.707v.81zm-3.414 0h-1.707v-.81h1.707v.81zm-3.415 0h-1.707v-.81h1.707v.81zm-3.414 0H7.368v-.81h1.707v.81zm-3.414 0H3.954v-.81h1.707v.81zm23.408.406h-.81v-.406h-.405v-.81h1.215zm0 23.9h-.81V24.44h.81v1.707zm0-3.415h-.81v-1.707h.81v1.707zm0-3.414h-.81v-1.707h.81v1.707zm0-3.415h-.81v-1.707h.81v1.707zm0-3.414h-.81v-1.707h.81v1.707zm0-3.414h-.81V7.368h.81v1.707zm0-3.415h-.81V3.953h.81V5.66z" fill="#f47d09"/></svg>