<svg width="34" height="11" xmlns="http://www.w3.org/2000/svg"><g fill="#E1E9EC" fill-rule="evenodd"><path d="M17.875 10.656a.826.826 0 01-.605-.126l-5.282-3.581a.773.773 0 01-.193-1.096L15.534.681A.828.828 0 0116.66.482l5.282 3.581a.773.773 0 01.194 1.096l-3.74 5.172a.82.82 0 01-.522.325zm-4.292-4.554l3.962 2.686 2.807-3.879-3.964-2.685-2.805 3.878z"/><path d="M3.277 7.122l9.567-1.687.273 1.548L3.55 8.669l-.273-1.547zM20.816 4.03l9.567-1.688.273 1.548-9.567 1.687-.273-1.548z"/><path d="M31.76 5.291c-1.32.233-2.576-.62-2.802-1.9-.225-1.28.664-2.51 1.983-2.743 1.318-.232 2.575.62 2.8 1.9.226 1.28-.663 2.51-1.982 2.743zm-.546-3.095a.8.8 0 00-.661.914.8.8 0 00.933.633.8.8 0 00.661-.914.8.8 0 00-.933-.633zM3.06 10.352c-1.32.232-2.576-.62-2.802-1.9-.225-1.28.664-2.51 1.983-2.743 1.318-.233 2.575.62 2.8 1.9.226 1.28-.663 2.51-1.982 2.743zm-.546-3.095a.8.8 0 00-.661.914.8.8 0 00.933.633.8.8 0 00.661-.914.8.8 0 00-.933-.633z"/></g></svg>