<svg width="37" height="37" xmlns="http://www.w3.org/2000/svg"><g fill="#E1E9EC" fill-rule="evenodd"><path d="M21.717 8.043h-6.434a.805.805 0 01-.805-.804V.804c0-.444.36-.804.805-.804h6.434c.443 0 .805.36.805.804V7.24a.806.806 0 01-.805.804zm-5.63-1.608h4.826V1.609h-4.826v4.826zM7.24 22.522H.803A.806.806 0 010 21.717v-6.434c0-.444.36-.805.804-.805H7.24c.444 0 .804.36.804.805v6.434c0 .443-.36.805-.804.805zm-5.631-1.609h4.826v-4.826H1.609v4.826z"/><path d="M4.826 16.087H3.217c0-7.096 5.774-12.87 12.87-12.87v1.61c-6.21 0-11.26 5.05-11.26 11.26zM21.717 37h-6.434a.806.806 0 01-.805-.804V29.76c0-.443.36-.804.805-.804h6.434c.443 0 .805.361.805.804v6.435a.807.807 0 01-.805.804zm-5.63-1.609h4.826v-4.826h-4.826v4.826z"/><path d="M16.087 33.783c-7.096 0-12.87-5.774-12.87-12.87h1.61c0 6.208 5.05 11.26 11.26 11.26v1.61zm20.109-11.261H29.76a.807.807 0 01-.804-.805v-6.434c0-.444.361-.805.804-.805h6.435c.442 0 .804.36.804.805v6.434a.807.807 0 01-.804.805zm-5.63-1.609h4.825v-4.826h-4.826v4.826z"/><path d="M33.783 16.087h-1.61c0-6.21-5.052-11.26-11.26-11.26v-1.61c7.096 0 12.87 5.774 12.87 12.87zm-12.87 17.696v-1.61c6.208 0 11.26-5.052 11.26-11.26h1.61c0 7.096-5.774 12.87-12.87 12.87z"/></g></svg>