<svg width="27" height="42" xmlns="http://www.w3.org/2000/svg"><g fill="#E1E9EC" fill-rule="evenodd"><path d="M13.478 41.12l-7.636-2.63a.802.802 0 01-.506-1.01L17.192 3.046a.801.801 0 011.021-.486l7.637 2.63a.8.8 0 01.506 1.011L14.5 40.635a.802.802 0 01-1.022.485zm-6.357-3.863l6.11 2.103L24.57 6.425 18.46 4.32 7.121 37.257z"/><path d="M19.97 9.864l-3.055-1.052a.801.801 0 01-.506-1.011.801.801 0 011.021-.486l3.055 1.052c.42.145.648.598.506 1.012a.801.801 0 01-1.021.485zm-2.559 2.468l-1.527-.526a.801.801 0 01-.506-1.011.801.801 0 011.021-.486l1.528.526c.42.145.648.599.506 1.012a.801.801 0 01-1.022.485zm.497 3.52l-3.055-1.051a.801.801 0 01-.506-1.012.801.801 0 011.021-.485l3.055 1.051c.42.145.648.599.506 1.012a.801.801 0 01-1.021.485zM15.35 18.32l-1.528-.525a.801.801 0 01-.506-1.012.801.801 0 011.022-.485l1.527.526a.8.8 0 01.506 1.011.801.801 0 01-1.022.486zm.496 3.52l-3.056-1.05a.801.801 0 01-.506-1.012.801.801 0 011.022-.485l3.054 1.052a.8.8 0 01.506 1.011.801.801 0 01-1.021.486zm-2.559 2.469l-1.527-.526a.802.802 0 01-.506-1.011.802.802 0 011.022-.486l1.527.526c.42.144.648.6.506 1.011a.802.802 0 01-1.022.486zm.497 3.52l-3.055-1.052a.802.802 0 01-.506-1.011.802.802 0 011.022-.486l3.054 1.052c.42.145.648.6.506 1.011a.802.802 0 01-1.021.486zm-2.558 2.468l-1.528-.526a.802.802 0 01-.506-1.011.802.802 0 011.022-.486l1.527.526c.42.145.648.6.506 1.012a.802.802 0 01-1.021.485zm.496 3.52l-3.055-1.052a.802.802 0 01-.506-1.011.802.802 0 011.022-.486l3.054 1.052c.42.145.648.6.506 1.012a.802.802 0 01-1.021.485zm-2.558 2.469l-1.528-.526a.802.802 0 01-.506-1.012.802.802 0 011.022-.485l1.527.525c.42.145.648.6.506 1.012a.802.802 0 01-1.021.486zM.83 35.677a.805.805 0 01-.548-.783l.31-8.34a.763.763 0 01.042-.23L8.437 3.663c.74-2.149 2.61-3.318 4.353-2.718 1.743.6 2.497 2.673 1.757 4.821L6.744 28.428a.81.81 0 01-.107.207l-4.892 6.762a.805.805 0 01-.914.28zM2.2 26.74l-.206 5.558 3.26-4.506L13.02 5.24c.44-1.274.112-2.503-.744-2.798-.857-.295-1.872.473-2.31 1.747L2.199 26.74z"/><path d="M2.577 25.645l3.055 1.051-.516 1.498-3.055-1.052.516-1.497zm-1.499-8.052a.801.801 0 01-.506-1.011l3.35-9.731a.801.801 0 011.022-.486l8.4 2.893c.42.144.649.598.507 1.011a.801.801 0 01-1.022.486l-7.637-2.63L2.1 17.107a.801.801 0 01-1.021.486z"/></g></svg>