<svg version="1.1" id="_x31_" xmlns="http://www.w3.org/2000/svg" x="0" y="0" viewBox="0 0 30 30" xml:space="preserve"><style>.st1{fill:#1658ff}</style><path fill="#fff" d="M10.865 13.153h13.321v14.239H10.865z"/><path class="st1" d="M26.846 29.4H3.388V.427h17.708v.658H4.046v27.657h22.141V6.386h.659z"/><path class="st1" d="M26.764 6.971h-6.019l-.329-.33.01-6.009.562-.232 5.858 5.858-.082.713zm-5.689-.659h4.894l-4.886-4.886-.008 4.886z"/><path d="M15.634 25.485c-.063 0-.122-.001-.17-.003-1.276-.059-2.063-.873-2.104-2.177-.034-1.101-.05-1.604-.971-2.528l-.23-.231.229-.232c.895-.908.911-1.407.945-2.501.041-1.304.827-2.118 2.104-2.177.197-.01.607.005.624.006l-.024.658a9.526 9.526 0 00-.569-.006c-.653.03-1.438.322-1.476 1.54-.036 1.155-.094 1.796-.915 2.711.847.931.906 1.576.942 2.741.038 1.218.824 1.51 1.476 1.539.141.006.46-.002.57-.006l.024.658c-.013-.001-.253.008-.455.008zm3.561 0a13.3 13.3 0 01-.455-.009l.024-.658c.11.004.428.012.57.006.653-.03 1.438-.322 1.476-1.539.036-1.164.095-1.81.942-2.742-.821-.914-.879-1.555-.915-2.711-.038-1.218-.824-1.51-1.476-1.54-.141-.006-.459.003-.57.006l-.024-.658c.018-.001.426-.016.625-.006 1.276.059 2.063.873 2.103 2.177.034 1.094.05 1.594.945 2.502l.229.232-.23.231c-.921.925-.937 1.427-.971 2.528-.041 1.304-.827 2.118-2.104 2.177a2.807 2.807 0 01-.169.004z" fill="#f47d09"/><path class="st1" d="M6.668 7.848l.481-.498c.262.363.596.548.922.548.553 0 .817-.263.817-.948V4.645H7.051v-.68h2.651v3.051c0 .869-.411 1.586-1.606 1.586a1.698 1.698 0 01-1.428-.754zm4.099.089l.471-.557c.345.31.793.518 1.269.518.529 0 .809-.233.809-.551 0-.405-.312-.514-.755-.701l-.625-.272c-.478-.186-.971-.539-.971-1.206 0-.724.652-1.282 1.58-1.282a2.1 2.1 0 011.457.579l-.413.514c-.31-.247-.624-.389-1.082-.389-.432 0-.723.194-.723.531 0 .354.363.483.776.641l.597.26c.579.223.988.568.988 1.225 0 .739-.622 1.355-1.686 1.355-.64 0-1.246-.244-1.692-.665z"/></svg>