<svg width="35" height="35" xmlns="http://www.w3.org/2000/svg"><g fill="#E1E9EC" fill-rule="evenodd"><path d="M13.138 25.622a.796.796 0 01-.563-.233l-2.966-2.964a.796.796 0 01-.223-.696C11.218 11.084 31.056.15 33.846.15c.37 0 .599.15.726.277.461.461.232 1.193.107 1.588-1.297 4.14-11.33 21.782-21.401 23.598a1.018 1.018 0 01-.14.008zM11.033 21.6l2.364 2.362C22.095 21.967 31.527 6.12 33.048 1.95 28.92 3.433 13.004 12.548 11.033 21.6z"/><path d="M.947 34.847a.796.796 0 01-.796-.795c0-3.227 2.92-9.181 4.68-10.944 1.886-1.885 5.173-1.885 7.058 0a4.968 4.968 0 011.46 3.532c0 1.331-.52 2.585-1.462 3.527-1.76 1.76-7.71 4.68-10.94 4.68zm7.415-11.609c-.909 0-1.761.355-2.404.998-1.33 1.33-3.694 6.04-4.143 8.946 2.907-.444 7.617-2.812 8.947-4.142a3.372 3.372 0 00.996-2.402 3.39 3.39 0 00-3.396-3.4zm5.603-8.783l6.298 6.296-1.124 1.126-6.299-6.297 1.125-1.125z"/></g></svg>