<svg version="1.1" id="Layer_1" xmlns="http://www.w3.org/2000/svg" x="0" y="0" viewBox="0 0 35 35" xml:space="preserve"><style>.st1{fill:#fff}.st2{display:none}.st3{display:inline;fill:#fff}</style><g id="IG"><path class="st1" d="M17.5 20.7c1.7 0 3.2-1.4 3.2-3.2 0-.7-.2-1.3-.6-1.9-.6-.8-1.5-1.3-2.6-1.3-1 0-2 .5-2.6 1.3-.4.5-.6 1.2-.6 1.9 0 1.8 1.5 3.2 3.2 3.2zm6.9-7.1v-3.1h-3.1l.1 3.1z"/><path class="st1" d="M17.5 1.5c-8.7 0-15.8 7.2-15.8 16s7.1 16 15.8 16 15.8-7.2 15.8-16-7.1-16-15.8-16zm9 14.1V23c0 1.9-1.6 3.5-3.5 3.5H12c-1.9 0-3.5-1.6-3.5-3.5V11.9c0-1.9 1.6-3.5 3.5-3.5h11c1.9 0 3.5 1.6 3.5 3.5v3.7z"/><path class="st1" d="M22.4 17.5c0 2.8-2.2 5-4.9 5s-4.9-2.2-4.9-5c0-.6.1-1.3.3-1.9h-2.7V23c0 1 .8 1.7 1.7 1.7H23c.9 0 1.7-.8 1.7-1.7v-7.4H22c.3.6.4 1.3.4 1.9z"/></g><g id="DR" class="st2"><path class="st3" d="M18.7 17.6c.2-.1.4-.1.6-.2-.4-.9-.9-1.9-1.3-2.8-7.8 2.3-15.3 2.5-17.4 2.5H.1v.4c0 4.4 1.7 8.5 4.4 11.6.7-1.2 5.5-8.7 14.2-11.5zm-2.3-5.9c-2.8-4.9-5.8-9.1-6.4-9.9-4.8 2.3-8.4 6.7-9.6 12h.2c1.6 0 8.3-.1 15.8-2.1zm4.1 8.8c-9.6 3.3-13.2 9.8-13.7 10.8 2.9 2.3 6.6 3.6 10.6 3.6 2.4 0 4.7-.5 6.7-1.4-.1-1.5-1.2-6.8-3.6-13zM29 4.4C25.9 1.7 21.9.1 17.5.1c-1.4 0-2.7.2-3.9.4.7 1 3.7 5.1 6.4 10.1 5.9-2.2 8.5-5.5 9-6.2zm-7.6 9c.4.8.8 1.6 1.1 2.4.1.3.2.6.3.8 1.4-.2 2.7-.2 4-.2 4 0 7.3.6 8.1.8-.1-4-1.5-7.7-3.9-10.6-.5.8-3.5 4.3-9.6 6.8z"/><path class="st3" d="M17.5-15C-.4-15-15-.4-15 17.5S-.4 50 17.5 50 50 35.4 50 17.5 35.4-15 17.5-15zm0 53.1c-11.4 0-20.7-9.3-20.7-20.6S6.1-3.1 17.5-3.1s20.7 9.3 20.7 20.6c0 11.4-9.3 20.6-20.7 20.6z"/><path class="st3" d="M24 19.6c2.2 6 3.1 10.9 3.3 12.2 3.8-2.6 6.5-6.7 7.3-11.5-.7-.2-3.5-1-7.2-1-1 .1-2.1.2-3.4.3z"/></g><g id="LI" class="st2"><path class="st1" d="M23.4 12.9c-2.8 0-4 1.5-4.7 2.6v-2.2h-5.2c.1 1.5 0 15.8 0 15.8h5.2v-8.8c0-.5 0-.9.2-1.3.4-.9 1.2-1.9 2.7-1.9 1.9 0 2.7 1.4 2.7 3.6v8.4h5.2v-9c0-5-2.6-7.2-6.1-7.2zm-4.7 2.6zM5.3 13.3h5.2v15.8H5.3z"/><path class="st1" d="M17.5-15C-.4-15-15-.4-15 17.5S-.4 50 17.5 50 50 35.4 50 17.5 35.4-15 17.5-15zm17.2 47.2c0 1.4-1.1 2.5-2.6 2.5H2.6c-1.4 0-2.6-1.1-2.6-2.5V2.3C0 .9 1.1-.2 2.6-.2h29.6c1.4 0 2.6 1.1 2.6 2.5l-.1 29.9z"/><path class="st1" d="M8 5.7c-1.8 0-3 1.2-3 2.7s1.1 2.7 2.9 2.7c1.8 0 3-1.2 3-2.7 0-1.6-1.1-2.7-2.9-2.7z"/></g></svg>