<svg width="28" height="37" xmlns="http://www.w3.org/2000/svg"><g fill="#E1E9EC" fill-rule="evenodd"><path d="M9.046 23.812l-6.283 1.221a.795.795 0 01-.936-.623L.62 18.2a.796.796 0 01.634-.928l6.283-1.221a.796.796 0 01.936.623l1.207 6.21c.084.43-.2.844-.634.928zm-5.8-.484l4.713-.915-.906-4.657-4.712.915.906 4.657zM22.338 8.34l-6.283 1.222a.797.797 0 01-.936-.624l-1.207-6.21a.797.797 0 01.635-.928L20.829.58a.797.797 0 01.936.623l1.207 6.21a.796.796 0 01-.634.929zm-5.8-.483l4.713-.916-.906-4.657-4.711.916.905 4.657zm10.628 25.321l-6.283 1.221a.796.796 0 01-.936-.623l-1.207-6.21a.798.798 0 01.634-.928l6.283-1.222a.798.798 0 01.936.624l1.207 6.21a.796.796 0 01-.634.928zm-5.8-.484l4.713-.916-.906-4.657-4.712.916.906 4.657z"/><path d="M5.12 24.575l1.57-.305 1.81 9.314-1.57.306-1.81-9.315zM1.8 7.5l1.57-.306 1.81 9.314-1.57.306L1.8 7.5z"/><path d="M2.88 8.868C1.583 9.121.323 8.282.073 6.998c-.25-1.284.605-2.534 1.904-2.787 1.299-.252 2.559.587 2.808 1.87.25 1.283-.604 2.535-1.903 2.787zm-.603-3.104a.797.797 0 00-.634.929.796.796 0 00.936.623.796.796 0 00.635-.929.795.795 0 00-.937-.623zM8.312 36.81c-1.299.253-2.559-.588-2.808-1.87-.25-1.285.604-2.534 1.903-2.786 1.299-.253 2.559.585 2.809 1.87.249 1.282-.605 2.534-1.904 2.787zm-.603-3.104a.797.797 0 00-.635.929.797.797 0 00.937.623.797.797 0 00.634-.929.795.795 0 00-.936-.623zM6.327 17.297l-1.596-.1C5.142 11.243 9.57 6.28 15.498 5.129L15.8 6.68c-5.216 1.014-9.11 5.381-9.473 10.616zM20.52 30.958c-5.93 1.153-11.896-1.794-14.505-7.164l1.442-.69c2.296 4.724 7.544 7.316 12.767 6.3l.301 1.553h-.004z"/></g></svg>