<svg xmlns="http://www.w3.org/2000/svg" viewBox="0 0 70 70"><path d="M35.5 2.8C17.5 2.8 3 17.4 3 35.3s14.6 32.5 32.5 32.5S68 53.3 68 35.3C68 17.4 53.4 2.8 35.5 2.8zm17.8 24.9v1.1c0 11.5-8.7 24.8-24.8 24.8-4.9 0-9.5-1.4-13.3-3.9.7.1 1.4.1 2.1.1 4.1 0 7.8-1.4 10.8-3.7-3.8-.1-7-2.6-8.1-6 .5.1 1.1.2 1.6.2.8 0 1.6-.1 2.3-.3-4-.8-7-4.3-7-8.5v-.1c1.2.7 2.5 1 3.9 1.1-2.3-1.6-3.9-4.2-3.9-7.2 0-1.6.4-3.1 1.2-4.4 4.3 5.3 10.7 8.7 17.9 9.1-.1-.6-.2-1.3-.2-2 0-4.8 3.9-8.7 8.7-8.7 2.5 0 4.8 1.1 6.3 2.7 2-.4 3.8-1.1 5.5-2.1-.7 2-2 3.7-3.8 4.8 1.8-.2 3.4-.7 5-1.4-1 1.6-2.4 3.1-4.2 4.4z" fill="#fff"/></svg>