<svg version="1.1" id="Layer_1" xmlns="http://www.w3.org/2000/svg" x="0" y="0" viewBox="0 0 30 30" xml:space="preserve"><style>.st0{display:none}.st1{fill:#009eff}.st1,.st2{display:inline}.st3{fill:#009eff}.st4{fill:#1658ff}.st5{fill:#f47d09}.st6{fill:#fff}</style><g id="_x31_" class="st0"><path class="st1" d="M27 29.4H3.5V.3h17.7V1H4.1v27.7h22.2V6.3h.7z"/><path class="st1" d="M26.9 6.9h-6l-.3-.3v-6l.6-.2L27 6.2l-.1.7zm-5.7-.7h4.9l-4.9-4.9v4.9z"/><g class="st2"><path class="st3" d="M15.8 25.5h-.2c-1.3-.1-2.1-.9-2.1-2.2 0-1.1-.1-1.6-1-2.5l-.2-.2.2-.2c.9-.9.9-1.4.9-2.5 0-1.3.8-2.1 2.1-2.2h.6v.7h-.6c-.7 0-1.4.3-1.5 1.5 0 1.2-.1 1.8-.9 2.7.8.9.9 1.6.9 2.7 0 1.2.8 1.5 1.5 1.5h.6v.7h-.3zm3.5 0h-.5v-.7h.6c.7 0 1.4-.3 1.5-1.5 0-1.2.1-1.8.9-2.7-.7-1-.8-1.6-.8-2.8s-.8-1.5-1.5-1.5h-.6v-.7h.6c1.3.1 2.1.9 2.1 2.2 0 1.1.1 1.6.9 2.5l.2.2-.2.2c-.9.9-.9 1.4-1 2.5 0 1.3-.8 2.1-2.1 2.2.1.1 0 .1-.1.1z"/></g><g class="st2"><path class="st3" d="M6.8 7.8l.5-.5c.3.4.6.5.9.5.6 0 .8-.3.8-1V4.6H7.1v-.7h2.7V7c0 .9-.4 1.6-1.6 1.6-.5-.1-1.1-.3-1.4-.8zm4.1.1l.5-.6c.3.3.8.5 1.3.5s.8-.2.8-.6-.3-.5-.8-.7l-.7-.2c-.5-.2-1-.5-1-1.2s.7-1.3 1.6-1.3c.6 0 1.1.2 1.5.6l-.4.5c-.3-.2-.6-.4-1.1-.4-.4 0-.7.2-.7.5 0 .4.4.5.8.6l.6.4c.6.2 1 .6 1 1.2 0 .7-.6 1.4-1.7 1.4-.7-.1-1.3-.3-1.7-.7z"/></g></g><g id="Layer_2_1_" class="st0"><g class="st2"><path class="st3" d="M6 5.2L3.4 2.6.9 5.1l-.4-.4 2.9-2.9 3 3z"/></g><g class="st2"><path class="st3" d="M3.1 2.2h.6v.6h-.6zm6.4 16.3v-.6c.4 0 .7-.1 1.1-.1l.1.5c-.4.1-.8.2-1.2.2zm-1.1-.1c-.4-.1-.8-.2-1.1-.3l.2-.5c.3.1.7.2 1 .3l-.1.5zm3.4-.4l-.2-.5c.3-.1.6-.3.9-.5l.3.5c-.3.1-.6.3-1 .5zm-5.6-.4c-.3-.2-.6-.4-.9-.7l.4-.4.9.6-.4.5zm7.5-.9l-.4-.4c.3-.2.5-.5.7-.8l.5.3c-.3.3-.5.6-.8.9zm-9.3-.6c-.2-.3-.4-.6-.6-1l.5-.3.6.9-.5.4zM15 14.8l-.5-.2c.1-.3.3-.7.3-1l.5.1c0 .3-.1.7-.3 1.1zM3.4 14c-.1-.4-.2-.8-.2-1.1l.6-.1c0 .4.1.7.2 1l-.6.2zm12.2-1.5H15v-1.1h.6v1.1zm-12.5-.8v-1.1h.6v1.1h-.6zm12.5-1.4H15V9.2h.6v1.1zM3.7 9.5h-.6V8.4h.6v1.1zM21.8 9h-.6V7.9l.5-.1V9h.1zm-6.2-.9L15 8c0-.4.2-.8.3-1.1l.5.2c-.1.3-.2.6-.2 1zM3.7 7.2h-.6V6.1h.6v1.1zm17.1-.3c-.2-.3-.4-.6-.7-.8l.4-.4c.3.3.6.6.8.9l-.5.3zm-4.3-.6l-.4-.4c.3-.3.6-.5 1-.7l.2.5c-.3.2-.6.4-.8.6zm2.8-.6c-.3-.1-.7-.2-1-.1V5c.4 0 .8 0 1.2.2l-.2.5zM3.7 5h-.6V3.9h.6V5zm17.5 5.1h.6v.6h-.6z"/></g><g class="st2"><path class="st3" d="M21.5 28.5c0-2-1.9-3.8-5.7-5.6-.3-.1-.4-.3-.4-.6 0-.4.2-.8.7-1 .7-.5 1.7-.5 2.6-.1.6.3 1 .5 1.3.7v-8c.1-.7.7-1.3 1.4-1.3s1.3.6 1.4 1.3v6.3h-.6v-6.3c0-.4-.4-.8-.8-.8s-.8.4-.8.8v9l-.4-.3s-.6-.4-1.7-.9-1.9-.1-2.1 0c-.3.2-.4.4-.4.5 0 0 0 .1.1.1 4 1.9 6 3.9 6 6.1l-.6.1z"/></g><g class="st2"><path class="st3" d="M25 18.3h-.6v-.8c0-.4-.4-.8-.8-.8s-.8.4-.8.8h-.6c.1-.7.7-1.3 1.4-1.3s1.3.6 1.4 1.3v.8z"/></g><g class="st2"><path class="st3" d="M26.7 20.2v-1.8c0-.4-.4-.8-.8-.8s-.8.3-.8.7v1.9h-.6.3-.3v-1.9c.1-.7.7-1.2 1.4-1.2s1.3.6 1.4 1.3v1.9l-.6-.1z"/></g><g class="st2"><path class="st3" d="M29.5 28.5h-.6v-9.1c0-.4-.4-.8-.8-.8s-.8.4-.8.8h-.6c.1-.7.7-1.3 1.4-1.3s1.3.6 1.4 1.3v9.1z"/></g><g class="st2"><path class="st3" d="M21.7 27.9h7.5v.6h-7.5z"/></g></g><g id="Layer_3" class="st0"><g class="st2"><path class="st3" d="M11.7 22h-.6v-1.6c0-.3-.3-.8-.8-1.4-.4-.5-.8-1.2-1.2-2.1-.8-1.5-.7-2.9-.7-3 0-3.7 3-6.7 6.7-6.7v.6c-3.4 0-6.2 2.8-6.2 6.2 0 0-.1 1.4.6 2.7.4.8.9 1.5 1.2 2 .5.7.8 1.2.8 1.7.2 0 .2 1.6.2 1.6z"/></g><g class="st2"><path class="st3" d="M18.7 22v-1.6c0-.5.4-1 .9-1.8.3-.5.8-1.2 1.2-2 .7-1.3.6-2.7.6-2.7 0-3.4-2.8-6.2-6.2-6.2v-.5c3.7 0 6.7 3 6.7 6.7 0 0 .1 1.5-.7 3-.4.9-.9 1.5-1.2 2.1-.4.7-.7 1.1-.8 1.5V22h-.5z"/></g><g class="st2"><path class="st3" d="M17.7 26.4h-5c-.9 0-1.5-.7-1.5-1.6v-2.9h.6v2.9c0 .5.4 1 1 1h5c.5 0 1-.4 1-1v-2.9h.6v2.9c-.2.9-.9 1.6-1.7 1.6z"/></g><g class="st2"><path class="st3" d="M11.5 20.8h7.4v.6h-7.4z"/></g><g class="st2"><path class="st3" d="M11.4 23H19v.6h-7.6z"/></g><g class="st2"><path class="st3" d="M15.2 28.8c-1.5 0-2.7-1.2-2.7-2.7h.5c0 1.2 1 2.1 2.1 2.1s2.1-1 2.1-2.1h.6c0 1.5-1.2 2.7-2.6 2.7z"/></g><g class="st2"><path class="st3" d="M15.2 4.3c-.2 0-.3-.1-.3-.3V.9c0-.2.1-.3.3-.3s.3.1.3.3V4c-.1.2-.2.3-.3.3z"/></g><g class="st2"><path class="st3" d="M4.5 14.3h-3c-.2 0-.3-.1-.3-.3s.1-.3.3-.3h3c.2 0 .3.1.3.3 0 .1-.2.3-.3.3zm3-7.1c-.1 0-.1 0-.2-.1L5.2 4.9c-.2-.1-.2-.2 0-.4.1-.1.3-.1.4 0l2.1 2.1c.1.1.1.3 0 .4 0 .1-.1.2-.2.2zM5.3 23.5c-.1 0-.1 0-.2-.1s-.1-.3 0-.4l2.1-2.1c.1-.1.3-.1.4 0s.1.3 0 .4l-2.1 2.1c-.1.1-.1.1-.2.1z"/></g><g class="st2"><path class="st3" d="M28.8 14.3h-3c-.2 0-.3-.1-.3-.3s.1-.3.3-.3h3c.2 0 .3.1.3.3 0 .1-.1.3-.3.3zm-6-7.1c-.1 0-.1 0-.2-.1s-.1-.3 0-.4l2.1-2.1c.1-.1.3-.1.4 0s.1.3 0 .4L23 7.1c-.1 0-.1.1-.2.1zM25 23.5c-.1 0-.1 0-.2-.1l-2.1-2.1c-.1-.1-.1-.3 0-.4s.3-.1.4 0l2.1 2.1c.1.1.1.3 0 .4-.1.1-.1.1-.2.1z"/></g></g><g id="Layer_4" class="st0"><g class="st2"><path class="st3" d="M17.4 29.3c-.4 0-.7-.2-.8-.6L10.3 12c-.2-.5.1-1 .5-1.1l.8-.3c.2-.1.5-.1.7 0s.4.3.4.5L18.4 28c.2.5-.1.9-.5 1.1l-.2.1c-.1.1-.2.1-.3.1zm-1.7-4.7l1.5 4c0 .1.1.1.1.2h.2l.2-.1c.1 0 .2-.2.2-.3l-5.7-16.9c0-.1-.1-.1-.1-.1h-.2l-.8.3c-.1 0-.2.2-.2.3l4.8 12.6z"/><path transform="rotate(-19.369 12.351 14.02)" class="st3" d="M11.402 13.719h1.9v.6h-1.9z"/><path transform="rotate(-19.369 13.206 16.409)" class="st3" d="M12.307 16.108h1.8v.6h-1.8z"/><path class="st3" d="M10.5 11.2c-.4 0-.7-.1-.9-.3-.6-.5-.8-1.3-.7-2.6 0-.9.4-2.4.4-2.4l.1-.5.4.3c.1 0 1.3 1 1.9 1.6.5.7 1.1 1.7.9 2.5-.1.5-.5.9-1.1 1.1l-.3.1c-.2.1-.5.2-.7.2zm-.8-4.7c-.1.5-.2 1.2-.2 1.8 0 1.1.1 1.8.5 2.1.2.2.6.2 1 .1l.2-.1c.5-.2.8-.4.8-.7.1-.5-.2-1.2-.9-2-.3-.4-1-.9-1.4-1.2z"/></g><g class="st2"><path class="st3" d="M24.7 25.1H17v-.6h7V2.4H6.8v22.1h8.4v.6h-9V1.8h18.5z"/></g><g class="st2"><path transform="rotate(-.55 7.802 2.12)" class="st3" d="M7.501.7h.6v2.7h-.6z"/><path transform="matrix(1 -.0096 .0096 1 -.02 .087)" class="st3" d="M8.801.701h.6v2.7h-.6z"/><path transform="matrix(1 -.0096 .0096 1 -.02 .118)" class="st3" d="M12.002.7h.6v2.7h-.6z"/><path transform="matrix(1 -.0095 .0095 1 -.019 .13)" class="st3" d="M13.302.701h.6v2.7h-.6z"/><path transform="matrix(1 -.0096 .0096 1 -.019 .16)" class="st3" d="M16.302.7h.6v2.7h-.6z"/><path transform="matrix(1 -.0096 .0096 1 -.019 .172)" class="st3" d="M17.602.7h.6v2.7h-.6z"/><path transform="rotate(-.55 21 2.049)" class="st3" d="M20.702.7h.6v2.7h-.6z"/><path transform="matrix(1 -.0096 .0096 1 -.019 .214)" class="st3" d="M22.002.7h.6v2.7h-.6z"/></g><g class="st2"><path class="st3" d="M19.3 10.5c-1.1 0-2.1-.9-2.1-2.1s.9-2.1 2.1-2.1 2.1.9 2.1 2.1-1 2.1-2.1 2.1zm0-3.5c-.8 0-1.5.7-1.5 1.5s.7 1.5 1.5 1.5 1.5-.7 1.5-1.5c-.1-.9-.7-1.5-1.5-1.5z"/></g><g class="st2"><path class="st3" d="M19.3 16.2c-1.1 0-2.1-.9-2.1-2.1s.9-2.1 2.1-2.1 2.1.9 2.1 2.1-1 2.1-2.1 2.1zm0-3.5c-.8 0-1.5.7-1.5 1.5s.7 1.5 1.5 1.5 1.5-.7 1.5-1.5-.7-1.5-1.5-1.5z"/></g><g class="st2"><path class="st3" d="M19.3 21.8c-1.1 0-2.1-.9-2.1-2.1s.9-2.1 2.1-2.1 2.1.9 2.1 2.1-1 2.1-2.1 2.1zm0-3.5c-.8 0-1.5.7-1.5 1.5s.7 1.5 1.5 1.5 1.5-.7 1.5-1.5-.7-1.5-1.5-1.5z"/></g></g><g id="Layer_5" class="st0"><g class="st2"><path class="st3" d="M4.7 24.7v-6.6H1.1v-16h23.5v16H9.4l-4.7 6.6zm-2.9-7.3h3.6v5.1l3.7-5.1h14.8V2.8H1.8v14.6z"/></g><g class="st2"><path class="st3" d="M8.4 11.6c-1 0-1.8-.8-1.8-1.8S7.4 8 8.4 8s1.8.8 1.8 1.8-.8 1.8-1.8 1.8zm0-2.8c-.6 0-1 .5-1 1 0 .6.5 1 1 1 .6 0 1-.5 1-1 .1-.5-.4-1-1-1zm4.6 2.8c-1 0-1.8-.8-1.8-1.8S12 8 13 8s1.8.8 1.8 1.8-.8 1.8-1.8 1.8zm0-2.8c-.6 0-1 .5-1 1 0 .6.5 1 1 1 .6 0 1-.5 1-1 .1-.5-.4-1-1-1zm4.6 2.8c-1 0-1.8-.8-1.8-1.8S16.6 8 17.6 8s1.8.8 1.8 1.8-.8 1.8-1.8 1.8zm0-2.8c-.6 0-1 .5-1 1 0 .6.5 1 1 1 .6 0 1-.5 1-1 .1-.5-.4-1-1-1z"/></g><g class="st2"><path class="st3" d="M25.3 27.9l-4.7-6.6H9.4v-.7h11.5l3.7 5.1v-5.1h3.6V6h-1.8v-.7h2.5v16h-3.6z"/></g></g><g id="Layer_7" class="st0"><g class="st2"><path class="st3" d="M8.9 12h-.8V8.2h3.8V9h-3z"/></g><g class="st2"><path class="st3" d="M21.8 21.8H18V21h3v-3h.8z"/></g><g class="st2"><path class="st3" d="M11.9 21.8H8.1V18h.8v3h3z"/></g><g class="st2"><path class="st3" d="M21.8 12H21V9h-2.9v-.8h3.7z"/></g><g class="st2"><path transform="rotate(-45.001 14.905 15.017)" class="st3" d="M14.505 5.917h.8v18.2h-.8z"/></g><g class="st2"><path transform="rotate(-45.001 14.99 15)" class="st3" d="M5.891 14.599h18.2v.8h-18.2z"/></g><g class="st2"><path class="st3" d="M29 29h-1.3v-.8h.5v-.4h.8zm-3 0h-1.7v-.8H26v.8zm-3.4 0H21v-.8h1.7v.8h-.1zm-3.4 0h-1.7v-.8h1.7v.8zm-3.3 0h-1.7v-.8h1.7v.8zm-3.4 0h-1.7v-.8h1.7v.8zm-3.4 0H7.4v-.8h1.7v.8zm-3.4 0H4v-.8h1.7v.8zm-3.4 0H1v-1.2h.8v.4h.5zm-.5-2.9H1v-1.7h.8v1.7zm0-3.4H1V21h.8v1.7zm0-3.4H1v-1.7h.8v1.7zm0-3.4H1v-1.7h.8v1.7zm0-3.4H1v-1.7h.8v1.7zm0-3.4H1V7.4h.8v1.7zm0-3.4H1V4h.8v1.7zm0-3.4H1V1.1h1.3v.8h-.5zM26 1.9h-1.7v-.8H26v.8zm-3.4 0H21v-.8h1.7v.8h-.1zm-3.4 0h-1.7v-.8h1.7v.8zm-3.3 0h-1.7v-.8h1.7v.8zm-3.4 0h-1.7v-.8h1.7v.8zm-3.4 0H7.4v-.8h1.7v.8zm-3.4 0H4v-.8h1.7v.8zm23.3.4h-.8v-.4h-.5v-.8H29zm0 23.8h-.8v-1.7h.8v1.7zm0-3.4h-.8V21h.8v1.7zm0-3.4h-.8v-1.7h.8v1.7zm0-3.4h-.8v-1.7h.8v1.7zm0-3.4h-.8v-1.7h.8v1.7zm0-3.4h-.8V7.4h.8v1.7zm0-3.4h-.8V4h.8v1.7z"/></g></g><g id="Layer_8" class="st0"><g class="st2"><path class="st3" d="M17.3 26.4c-.1 0-.2 0-.2-.1L12 21.2c-.1-.1-.1-.3 0-.5.1-.1.3-.1.5 0l5.1 5.1c.1.1.1.3 0 .5-.1 0-.2.1-.3.1z"/><path class="st3" d="M12.3 26.4c-.1 0-.2 0-.2-.1-.1-.1-.1-.3 0-.5l5.1-5.1c.1-.1.3-.1.5 0 .1.1.1.3 0 .5l-5.1 5.1c-.2 0-.2.1-.3.1z"/></g><g class="st2"><path class="st3" d="M26.5 26.4c-.1 0-.2 0-.2-.1l-5.1-5.1c-.1-.1-.1-.3 0-.5.1-.1.3-.1.5 0l5.1 5.1c.1.1.1.3 0 .5-.2 0-.3.1-.3.1z"/><path class="st3" d="M21.4 26.4c-.1 0-.2 0-.2-.1-.1-.1-.1-.3 0-.5l5.1-5.1c.1-.1.3-.1.5 0s.1.3 0 .5l-5.1 5.1c-.1 0-.2.1-.3.1z"/></g><g class="st2"><path class="st3" d="M14.4 12.7l-3.9-3.9c-.1-.1-.1-.3 0-.5.1-.1.3-.1.5 0l3.4 3.4 7.5-7.5c.1-.1.3-.1.5 0 .1.1.1.3 0 .5l-8 8z"/></g><g class="st2"><path class="st3" d="M8.2 26.4c-.1 0-.2 0-.2-.1l-5.1-5.1c-.1-.1-.1-.3 0-.5.1-.1.3-.1.5 0l5.1 5.1c.1.1.1.3 0 .5-.1 0-.2.1-.3.1z"/><path class="st3" d="M3.2 26.4c-.1 0-.2 0-.2-.1-.1-.1-.1-.3 0-.5l5-5.1c.1-.1.3-.1.5 0 .1.1.1.3 0 .5l-5.1 5.1c-.1 0-.2.1-.2.1z"/></g><g class="st2"><path class="st3" d="M29 16.7h-1.3V16H29v.7zm-2.7 0H25V16h1.3v.7zm-2.7 0h-1.3V16h1.3v.7zm-2.6 0h-1.3V16H21v.7zm-2.7 0H17V16h1.3v.7zm-2.6 0h-1.3V16h1.3v.7zm-2.7 0h-1.3V16H13v.7zm-2.7 0H9V16h1.3v.7zm-2.6 0H6.3V16h1.3v.7h.1zm-2.7 0H3.7V16H5v.7zm-2.6 0H1V16h1.3v.7h.1z"/></g></g><g id="Layer_9" class="st0"><g class="st2"><path class="st3" d="M12.8 26.7H1.4v-14h2.3v.6H2V26h10.8z"/></g><g class="st2"><path class="st3" d="M28.6 26.7H17.3V26H28V13.3h-1.7v-.6h2.3z"/></g><g class="st2"><path class="st3" d="M16.5 28.1h-3c-.7 0-1.3-.8-1.3-1.7h.7c0 .6.3 1.1.6 1.1h3c.3 0 .6-.4.6-1.1h.7c0 .9-.6 1.7-1.3 1.7z"/></g><g class="st2"><path class="st3" d="M15.3 24.8H3.4V11.1h9.4c1.4 0 2.6 1.2 2.6 2.6v11.1h-.1zm-11.2-.6h10.6V13.8c0-1.1-.9-1.9-1.9-1.9H4.1v12.3z"/><path class="st3" d="M11.7 15.1h-5c-.2 0-.3-.1-.3-.3s.1-.3.3-.3h5c.2 0 .3.1.3.3s-.1.3-.3.3zm0 3.2h-5c-.2 0-.3-.1-.3-.3 0-.2.1-.3.3-.3h5c.2 0 .3.1.3.3 0 .2-.1.3-.3.3zm0 3.3h-5c-.2 0-.3-.1-.3-.3 0-.2.1-.3.3-.3h5c.2 0 .3.1.3.3 0 .1-.1.3-.3.3z"/></g><g class="st2"><path class="st3" d="M26.6 24.8H14.7V13.6c0-1.4 1.2-2.6 2.6-2.6h9.4v13.8h-.1zm-11.3-.6h10.6V11.8h-8.7c-1.1 0-1.9.9-1.9 1.9v10.5z"/><path class="st3" d="M23.3 15.1h-5c-.2 0-.3-.1-.3-.3s.1-.3.3-.3h5c.2 0 .3.1.3.3 0 .2-.2.3-.3.3zm0 3.2h-5c-.2 0-.3-.1-.3-.3 0-.2.1-.3.3-.3h5c.2 0 .3.1.3.3 0 .2-.2.3-.3.3zm0 3.3h-5c-.2 0-.3-.1-.3-.3 0-.2.1-.3.3-.3h5c.2 0 .3.1.3.3 0 .1-.2.3-.3.3z"/></g><g class="st2"><path class="st3" d="M15.3 5.2c-.2 0-.3-.1-.3-.3V1.4c0-.2.1-.3.3-.3s.3.1.3.3v3.4c0 .3-.1.4-.3.4zM7.2 8.7c-.1 0-.2 0-.2-.1L4.5 6.1c-.1-.1-.1-.3 0-.4.1-.1.3-.1.5 0l2.5 2.5c.1.1.1.3 0 .5-.2-.1-.2 0-.3 0zm16.3-.1c-.1 0-.2 0-.2-.1-.1-.1-.1-.3 0-.5l2.4-2.4c.1-.1.3-.1.5 0s.1.3 0 .5l-2.4 2.4c-.1 0-.2.1-.3.1z"/></g></g><g id="Layer_10" class="st0"><g class="st2"><path class="st3" d="M10.4 25.4h-.1C6.4 23.4 4 19.4 4 15 4 8.5 9.2 3.3 15.7 3.3h.6c.2 0 .3.1.3.3s-.1.3-.3.3h-.6C9.6 3.9 4.6 8.9 4.6 15c0 4.2 2.3 7.9 6 9.9.1.1.2.3.1.4-.1.1-.2.1-.3.1z"/></g><g class="st2"><path class="st3" d="M15.7 26.7c-.2 0-.3-.1-.3-.3s.1-.3.3-.3c6.1 0 11.1-5 11.1-11.1 0-4-2.2-7.7-5.7-9.7-.1-.1-.2-.3-.1-.4s.3-.2.4-.1c3.7 2.1 6 6 6 10.2 0 6.5-5.2 11.7-11.7 11.7z"/></g><g class="st2"><path class="st3" d="M12 24.3s-.1 0 0 0c-.1 0-.2-.1-.3-.2L10.5 21c-.1-.1-.1-.3-.2-.4-.1-.1-.3-.2-.5-.2-1.1-.4-1.8-.9-2-1.6-.2-.6 0-1.2.1-1.7L8 17c.1-.4.2-.8.2-1.2 0-.4-.2-.8-.6-.9h-.3c-.2 0-.4 0-.6-.1-.4-.3-.6-.8-.3-1.6.1-.4.2-.7.1-.9-.1-.1-.9-.5-1.5-.8-.1-.1-.2-.3-.1-.4.1-.1.3-.2.4-.1 1.5.7 1.6.9 1.7.9.4.5.2 1.1 0 1.5-.1.3-.2.7 0 .8.1 0 .2.1.3.1h.4c.7.1 1 .8 1.1 1.4 0 .5-.1 1-.3 1.4l-.1.2c-.1.4-.2.9-.1 1.3.2.5.7.9 1.6 1.2.3.1.5.2.7.4.2.2.3.4.3.6l1 2.5c.7-1 2.4-3.5 2.6-3.7.2-.2.3-.4.5-.5l.3-.3v-.1c-.2-.8-.9-1.4-1.7-1.5h-.2c-.3 0-.7 0-1-.3l-.3-.3-.1-.1c-.4-.5-1.3-.4-2-.3h-.5c-.3-.1-.4-.5-.5-.7-.2-.9-.4-1.8-.6-2.6-.1-.4-.1-.7.1-1.1.1-.2.3-.4.6-.5.3-.2.7-.3 1.1-.3.2-.1.4-.1.6-.2.4-.1.9-.5 1-.9.1-.6-.7-1.1-1.2-1.4-.1-.1-.3-.1-.3-.4-.1-.2 0-.4 0-.4.2-.5.5-.9.9-1.2.2-.2.3-.3.4-.5.4-.5.5-1.2.2-1.5-.1-.1-.1-.3 0-.4s.3-.1.4 0c.6.6.4 1.6-.1 2.3-.2.2-.3.4-.5.5-.3.3-.6.6-.8 1 .4.2 1.6.9 1.5 2-.1.7-.8 1.2-1.4 1.4-.2.1-.5.1-.7.2-.3.1-.7.1-.9.3-.2.1-.3.2-.4.3-.1.2-.1.4 0 .7.2.9.3 1.7.6 2.6.1.2.1.3.1.3h.3c.9-.1 2-.2 2.6.6 0 .1.1.1.1.2.1.1.1.2.2.2.1.1.3.1.6.1h.2c1.1.1 2 .9 2.3 1.9 0 .1.1.3-.1.5-.1.2-.3.3-.4.4-.2.1-.3.2-.4.4-.2.3-2.9 4.2-2.9 4.2.1.1 0 .1-.1.1z"/></g><g class="st2"><path class="st3" d="M21.8 19h-.1c-.3-.1-.4-.2-.5-.4-.1-.2 0-.4.1-.6.2-.5.1-1.1-.2-1.6-.3-.5-.8-.8-1.4-.8h-.1c-.5 0-1.2-.1-1.4-.9-.2-1.2.6-1.6 1.3-1.9h.1c.3-.1 1.2-.4 1.3-.8v-.1c0-.1-.2 0-.3 0-.1 0-.2 0-.3.1-.4.1-1.1.3-1.4-.3-.1-.2-.1-.4 0-.5.2-.4.7-.5 1.1-.6h.1c.5-.1.9-.3 1.2-.5l.3-.3c.3-.3.5-.6 1-.7h.4c.2-.1.2-.3.2-.7 0-.4.1-.9.5-1.1.1-.1.3 0 .4.1s0 .3-.1.4c-.2.1-.2.3-.2.7 0 .4-.1.9-.6 1.2-.1.1-.3.1-.4.1h-.2c-.2.1-.4.3-.7.5l-.3.3c-.4.4-.9.5-1.4.7H20c-.6.2-.7.3-.7.3.1.1.6 0 .8-.1.1 0 .3-.1.4-.1.2 0 .7-.1.9.3.1.2.1.4.1.6-.2.5-.9.8-1.7 1.1h-.1c-.8.3-1 .6-.9 1.2.1.4.3.4.8.4h.1c.7.1 1.4.5 1.8 1.1s.5 1.4.2 2.1c0 .1-.1.2-.1.2h.1c.3 0 1.2-1 1.8-1.8.1-.2.5-.7.3-.9 0-.1-.1-.1-.2-.2-.1 0-.1-.1-.2-.1-.4-.3-.6-.8-.5-1.3s.8-.9.9-1c.1 0 .2-.1.2 0 .1 0 .1.1.2.1l.5.8c0 .1.1.2.1.3.1.2.3.6.5.7.1 0 .3-.1.5-.2.1 0 .1-.1.2-.1.3-.2.7-.4 1-.6.1-.1.3 0 .4.1s0 .3-.1.4c-.3.2-.7.4-1 .6l-.1.1c-.3.2-.6.4-1 .3-.4-.1-.7-.6-.9-1 0-.1-.1-.2-.1-.2l-.3-.5c-.2.1-.3.3-.4.4-.1.3.1.5.3.7 0 0 .1.1.2.1.1.1.3.2.4.3.2.3.4.8-.2 1.6-.4.3-1.6 2-2.4 2z"/></g><g class="st2"><path class="st3" d="M10 12.6c-.1 0-.3-.1-.3-.2 0-.2.1-.3.2-.3l1.2-.2c.2 0 .3.1.3.2 0 .2-.1.3-.2.3l-1.2.2c0-.1 0 0 0 0z"/></g><g class="st2"><path class="st3" d="M19.6 9.8c-.1 0-.3-.1-.3-.2 0-.2.1-.3.2-.4l1-.3c.2 0 .3.1.4.2 0 .2-.1.3-.2.4l-1.1.3z"/></g><g class="st2"><path class="st3" d="M14.3 22.6c-.1 0-.1 0 0 0-.3-.1-.3-.2-.3-.4l.4-1.2c.1-.2.2-.2.4-.2.2.1.2.2.2.4l-.4 1.2c-.1.1-.2.2-.3.2z"/></g><g class="st2"><path class="st3" d="M13.8 6.8l-.4-.5 2.9-2.7L13.7.8l.4-.4 3.1 3.2z"/></g><g class="st2"><path class="st3" d="M18.2 29.6l-3.3-3.1 3.1-3.3.4.5-2.7 2.8 2.9 2.7z"/></g></g><path class="st4" d="M21.478 10.063c-.667 0-1.3-.252-1.785-.71l.425-.449c.369.349.852.541 1.36.541.508 0 .991-.192 1.36-.541l.425.449a2.587 2.587 0 01-1.785.71z"/><path class="st4" d="M29.189 19.736h-5.551l.039-2.16-4.933-.047.026-3.085-2.767-.012.122-.398c.004-.014.424-1.382 1.514-5.475a5.782 5.782 0 015.775-5.734 5.78 5.78 0 015.772 5.611h.001v.018l.002.145h-.002l.002 11.137zm-4.922-.617h4.304l-.002-10.657a5.163 5.163 0 00-5.155-5.019A5.162 5.162 0 0018.257 8.6l-.011.08a243.04 243.04 0 01-1.413 5.138l2.559.012-.026 3.088 4.938.047-.037 2.154zM8.753 17.304a2.587 2.587 0 01-1.785-.71l.425-.449c.369.349.852.541 1.36.541.508 0 .991-.192 1.36-.541l.425.449a2.588 2.588 0 01-1.785.71z"/><path class="st4" d="M6.593 26.976H1.042V15.84l.002-.145.001-.018a5.781 5.781 0 015.772-5.611 5.781 5.781 0 015.775 5.734c1.092 4.097 1.51 5.462 1.514 5.476l.122.398-2.767.012.026 3.085-4.933.047.039 2.158zm-4.933-.617h4.304l-.039-2.154 4.938-.047-.026-3.088 2.559-.012c-.192-.661-.633-2.21-1.413-5.139l-.011-.08a5.162 5.162 0 00-5.157-5.157 5.163 5.163 0 00-5.155 5.019v10.658z"/><path class="st5" d="M6.861 8.239h-.618V6.13c-.002-.005-.057-.741.428-1.268.308-.335.75-.504 1.314-.504h6.978v.618H7.984c-.384 0-.673.103-.859.305-.298.324-.266.819-.266.823l.002 2.135zm8.991-3.881h.888v.618h-.888z"/><path class="st5" d="M6.56 9.101L5.025 7.567l.437-.437 1.095 1.095 1.078-1.093.44.434zM25.052 25.3h-8.847v-.618h8.847c.384 0 .673-.103.859-.305.298-.324.266-.819.266-.824l-.001-2.135h.618v2.109c.002.005.057.741-.428 1.268-.309.335-.751.505-1.314.505zm-10.626-.618h.889v.618h-.889z"/><path class="st5" d="M27.574 22.528l-1.095-1.095-1.078 1.093-.44-.433 1.515-1.536 1.534 1.534z"/><circle class="st6" cx="6.55" cy="13.227" r="1.674"/><circle class="st6" cx="23.263" cy="6.032" r="1.674"/></svg>