<svg width="34" height="34" xmlns="http://www.w3.org/2000/svg"><g fill="#E1E9EC" fill-rule="evenodd"><path d="M.979 33.794a.793.793 0 01-.56-.23.798.798 0 01-.142-.927l4.87-9.346a.775.775 0 01.144-.195L26.615 1.773c1.812-1.814 4.705-2.102 6.197-.608 1.544 1.542 1.27 4.322-.607 6.2L10.88 28.688a.86.86 0 01-.191.142l-9.345 4.874a.775.775 0 01-.365.09zm5.516-9.662l-3.656 7.012 7.01-3.658L31.09 6.248c1.259-1.259 1.531-3.036.607-3.961-.447-.451-1.023-.544-1.428-.544-.879 0-1.802.419-2.533 1.151L6.495 24.132z"/><path d="M11.074 26.265L7.72 22.909l1.118-1.118 3.354 3.356-1.118 1.118zm1.676-13.188a.794.794 0 01-.559-.231.794.794 0 010-1.118l9.507-9.506a.796.796 0 011.12 0l7.268 7.271a.791.791 0 01-1.118 1.118L22.26 3.9l-8.953 8.946a.786.786 0 01-.556.23z"/></g></svg>