<svg width="32" height="35" xmlns="http://www.w3.org/2000/svg"><g fill="#E1E9EC" fill-rule="evenodd"><path d="M25.832 31.565c-3.304.464-6.367-1.83-6.828-5.113a5.777 5.777 0 01.213-2.529c-1.14-1.255-1.68-1.749-1.931-1.938a1.851 1.851 0 00-.213-.136 4.646 4.646 0 01-3.706.52 1.595 1.595 0 00-.174.192c-.186.252-.568.872-1.316 2.392a5.79 5.79 0 01.9 2.373c.462 3.283-1.85 6.332-5.153 6.796-3.303.464-6.364-1.83-6.825-5.113-.462-3.283 1.85-6.332 5.151-6.796a5.842 5.842 0 011.99.058l2.208-2.914a4.218 4.218 0 01-.219-.86 4.6 4.6 0 01.013-1.33l-8.17-10.3a.768.768 0 01-.162-.38c-.22-1.57.955-3.177 1.09-3.354a.797.797 0 011.193-.086l10.037 9.897L20.85.665a.801.801 0 01.529-.39.812.812 0 01.643.143c.18.134 1.752 1.352 1.973 2.923.02.14.004.28-.05.41L18.93 15.907a4.243 4.243 0 01.405 2.161l2.926 2.191a5.94 5.94 0 011.896-.603c3.303-.464 6.364 1.83 6.825 5.113.46 3.286-1.848 6.332-5.15 6.796zm-8.949-11.407a.766.766 0 01.4.05c.374.143.686.308.956.506.494.373 1.303 1.185 2.474 2.498a.79.79 0 01.147.81c-.288.74-.384 1.483-.283 2.203.34 2.42 2.598 4.114 5.035 3.772 2.435-.343 4.138-2.59 3.797-5.013-.34-2.421-2.597-4.112-5.031-3.77a4.44 4.44 0 00-1.755.65.796.796 0 01-.903-.037l-3.704-2.773a.79.79 0 01-.307-.751c.054-.348.062-.636.024-.904a3.074 3.074 0 00-.371-1.077.787.787 0 01-.04-.684L22.38 3.372c-.11-.374-.372-.749-.644-1.059l-6.773 12.024a.792.792 0 01-.634.402 5.167 5.167 0 01-.176.004c-.262.054-.64.01-.83-.176L3.5 4.881c-.177.373-.325.807-.325 1.195l8.242 10.397c.15.188.204.434.15.668a3.107 3.107 0 00-.06 1.138c.039.27.125.546.273.862a.788.788 0 01-.088.807l-2.797 3.687a.805.805 0 01-.857.286 4.449 4.449 0 00-1.866-.143c-2.434.342-4.138 2.589-3.797 5.013.34 2.42 2.597 4.11 5.031 3.767 2.434-.342 4.14-2.589 3.799-5.01-.102-.727-.398-1.412-.878-2.042a.788.788 0 01-.081-.82c.763-1.578 1.314-2.584 1.684-3.072.21-.269.464-.52.784-.761a.795.795 0 01.771-.109 3.042 3.042 0 003.029-.425.74.74 0 01.37-.16z"/><path d="M7.479 31.511a3.415 3.415 0 01-3.862-2.895c-.26-1.856 1.046-3.578 2.915-3.84 1.869-.263 3.6 1.037 3.86 2.888.262 1.858-1.045 3.584-2.913 3.847zm-.728-5.175a1.83 1.83 0 00-1.56 2.058 1.826 1.826 0 002.067 1.547c1-.14 1.7-1.065 1.56-2.057a1.828 1.828 0 00-2.067-1.548zm18.934 2.616a3.413 3.413 0 01-3.86-2.895c-.26-1.856 1.046-3.578 2.914-3.84 1.867-.262 3.6 1.037 3.86 2.888.263 1.858-1.047 3.585-2.914 3.847zm-.727-5.175a1.828 1.828 0 00-1.559 2.058 1.827 1.827 0 002.066 1.548 1.828 1.828 0 001.56-2.058 1.827 1.827 0 00-2.067-1.548z"/></g></svg>