<svg width="37" height="32" xmlns="http://www.w3.org/2000/svg"><g fill="#E1E9EC" fill-rule="evenodd"><path d="M7.802 27.914c-.931 0-1.824-.359-2.451-.983-.642-.635-.983-1.505-.96-2.448a3.616 3.616 0 011.074-2.475c.268-.267.57-.438.814-.58.145-.086.296-.17.36-.234L27.565.379a.812.812 0 011.139 0l3.412 3.395a.797.797 0 010 1.132l-3.982 3.96 1.707 1.697a.804.804 0 010 1.133l-2.276 2.26a.808.808 0 01-1.137 0l-1.707-1.695-13.533 13.46c-.07.07-.162.22-.249.365-.143.236-.322.53-.584.79a3.609 3.609 0 01-2.553 1.038zm20.33-25.84L7.776 22.322c-.213.21-.465.36-.689.488-.188.107-.366.21-.486.33-.374.37-.588.863-.603 1.385-.013.497.161.952.49 1.275.677.675 2.009.656 2.73-.06.123-.124.23-.3.343-.487.139-.229.282-.464.493-.67l14.1-14.023a.808.808 0 011.137 0l1.707 1.696 1.14-1.131-1.711-1.698a.794.794 0 01-.235-.566.81.81 0 01.235-.567l3.983-3.96-2.276-2.26z"/><path d="M10.627 19.05c-.03 0-.063 0-.093-.005l-1.722-.2a.82.82 0 01-.38-.147L4.34 15.73a.796.796 0 01-.095-1.213L9.08 9.71a.801.801 0 01.642-.23c.238.02.454.147.59.342l2.882 4.168a.79.79 0 01.135.55l-.269 2.21a.801.801 0 01-.896.701.803.803 0 01-.703-.891l.234-1.912-2.162-3.126-3.487 3.465 3.16 2.293 1.51.173a.801.801 0 01-.088 1.597zm22.779-3.69c-2.39 0-4.688-1.547-5.854-2.706a.799.799 0 01-.001-1.13.812.812 0 011.137-.004c.16.158 3.914 3.8 6.879 1.488a.804.804 0 011.127.136.798.798 0 01-.135 1.123 5.016 5.016 0 01-3.153 1.093zm-30.724-.674a.798.798 0 01-.566-1.366l5.781-5.7a.808.808 0 011.137.006.796.796 0 01-.004 1.13l-5.782 5.702a.814.814 0 01-.566.228zm-.269 17.168a.8.8 0 01-.555-.22l-1.475-1.4a.806.806 0 01-.25-.572.792.792 0 01.237-.574l2.8-2.766a.811.811 0 011.136.003.798.798 0 01-.003 1.133l-2.212 2.185.338.323 2.38-2.123a.809.809 0 011.135.061.797.797 0 01-.061 1.13L2.95 31.653a.819.819 0 01-.537.201z"/></g></svg>