<svg version="1.1" id="Layer_1" xmlns="http://www.w3.org/2000/svg" x="0" y="0" viewBox="0 0 61 61" xml:space="preserve"><style>.st0{fill:#205fff}</style><path class="st0" d="M20.205 33.086h6.225l-3.16-7.997zm17.142-8.236h-3.208v11.492h3.208c3.591 0 5.65-2.586 5.65-5.746.001-3.161-2.01-5.746-5.65-5.746z"/><path class="st0" d="M30.5.573C13.98.573.573 13.933.573 30.5S13.98 60.427 30.5 60.427 60.427 47.02 60.427 30.5 47.02.573 30.5.573zM28.249 37.97l-1.293-3.304H19.63l-1.293 3.304H16.23l5.938-14.748h2.298l5.938 14.748h-2.155zm9.098 0H32.32V23.222h5.076c4.597 0 7.566 3.208 7.566 7.374-.049 4.214-3.018 7.374-7.615 7.374z"/></svg>