<svg version="1.1" id="Layer_1" xmlns="http://www.w3.org/2000/svg" x="0" y="0" viewBox="0 0 70 70" xml:space="preserve"><style>.st1{display:none}.st3,.st4{fill:#fff}.st4{display:inline}</style><g id="IG" class="st1"><path class="st3" d="M35 41.5c3.5 0 6.4-2.9 6.4-6.5 0-1.4-.5-2.7-1.2-3.8-1.2-1.6-3.1-2.7-5.2-2.7s-4 1.1-5.2 2.7c-.8 1.1-1.2 2.4-1.2 3.8 0 3.6 2.9 6.5 6.4 6.5zM49 27v-6.2h-6.2l.1 6.3z"/><path class="st3" d="M35 2.5C17.3 2.5 2.9 17.1 2.9 35S17.3 67.5 35 67.5c17.7 0 32.1-14.6 32.1-32.5S52.7 2.5 35 2.5zm18.2 28.7v15.1c0 3.9-3.2 7.1-7 7.1H23.8c-3.9 0-7-3.2-7-7.1V23.7c0-3.9 3.2-7.1 7-7.1h22.4c3.9 0 7 3.2 7 7.1v7.5z"/><path class="st3" d="M45 35c0 5.6-4.5 10.1-10 10.1S25 40.6 25 35c0-1.3.3-2.6.7-3.8h-5.4v15.1c0 2 1.6 3.5 3.5 3.5h22.4c1.9 0 3.5-1.6 3.5-3.5V31.2h-5.4c.4 1.2.7 2.5.7 3.8z"/></g><g id="DR" class="st1"><path class="st4" d="M36.2 35.1c.2-.1.4-.1.6-.2-.4-.9-.9-1.9-1.3-2.8-7.8 2.3-15.3 2.5-17.4 2.5h-.5v.4c0 4.4 1.7 8.5 4.4 11.6.7-1.2 5.5-8.7 14.2-11.5zm-2.3-5.9c-2.8-4.9-5.8-9.1-6.4-9.9-4.8 2.3-8.4 6.7-9.6 12h.2c1.6 0 8.3-.1 15.8-2.1zM38 38c-9.6 3.3-13.2 9.8-13.7 10.8 2.9 2.3 6.6 3.6 10.6 3.6 2.4 0 4.7-.5 6.7-1.4-.1-1.5-1.2-6.8-3.6-13zm8.5-16.1c-3.1-2.7-7.1-4.3-11.5-4.3-1.4 0-2.7.2-3.9.4.7 1 3.7 5.1 6.4 10.1 5.9-2.2 8.5-5.5 9-6.2zm-7.6 9c.4.8.8 1.6 1.1 2.4.1.3.2.6.3.8 1.4-.2 2.7-.2 4-.2 4 0 7.3.6 8.1.8-.1-4-1.5-7.7-3.9-10.6-.5.8-3.5 4.3-9.6 6.8z"/><path class="st4" d="M35 2.5C17.1 2.5 2.5 17.1 2.5 35S17.1 67.5 35 67.5 67.5 52.9 67.5 35 52.9 2.5 35 2.5zm0 53.1c-11.4 0-20.7-9.3-20.7-20.6S23.6 14.4 35 14.4c11.4 0 20.7 9.3 20.7 20.6 0 11.4-9.3 20.6-20.7 20.6z"/><path class="st4" d="M41.5 37.1c2.2 6 3.1 10.9 3.3 12.2 3.8-2.6 6.5-6.7 7.3-11.5-.7-.2-3.5-1-7.2-1-1 .1-2.1.2-3.4.3z"/></g><g id="LI"><path class="st3" d="M40.9 30.4c-2.8 0-4 1.5-4.7 2.6v-2.2H31c.1 1.5 0 15.8 0 15.8h5.2v-8.8c0-.5 0-.9.2-1.3.4-.9 1.2-1.9 2.7-1.9 1.9 0 2.7 1.4 2.7 3.6v8.4H47v-9c0-5-2.6-7.2-6.1-7.2zM36.2 33zm-13.4-2.2H28v15.8h-5.2z"/><path class="st3" d="M35 2.5C17.1 2.5 2.5 17.1 2.5 35S17.1 67.5 35 67.5 67.5 52.9 67.5 35 52.9 2.5 35 2.5zm17.2 47.2c0 1.4-1.1 2.5-2.6 2.5H20.1c-1.4 0-2.6-1.1-2.6-2.5V19.8c0-1.4 1.1-2.5 2.6-2.5h29.6c1.4 0 2.6 1.1 2.6 2.5l-.1 29.9z"/><path class="st3" d="M25.5 23.2c-1.8 0-3 1.2-3 2.7 0 1.5 1.1 2.7 2.9 2.7 1.8 0 3-1.2 3-2.7 0-1.6-1.1-2.7-2.9-2.7z"/></g></svg>