<svg width="37" height="37" xmlns="http://www.w3.org/2000/svg"><g fill="#E1E9EC" fill-rule="evenodd"><path d="M1.054 36.725a.806.806 0 01-.785-.985L2.95 23.963a.793.793 0 01.216-.39L24.859 1.882c1.847-1.849 4.807-2.156 6.326-.637l4.549 4.552c.785.784 1.134 1.898.983 3.13-.145 1.159-.72 2.291-1.622 3.19L13.404 33.813a.808.808 0 01-.391.214L1.23 36.706a.931.931 0 01-.177.019zm3.415-12.18L2.123 34.852l10.307-2.345 21.531-21.53c.647-.648 1.059-1.447 1.16-2.251.092-.732-.095-1.37-.521-1.796l-4.55-4.552c-.448-.452-1.034-.546-1.441-.546-.893 0-1.866.441-2.608 1.181L4.47 24.545z"/><path d="M30.6 14.368l-8.848-8.845 1.138-1.138 8.848 8.845-1.138 1.138zm-3.183 3.61L18.57 9.135l1.137-1.138 8.848 8.843-1.138 1.138zM13.54 33.343c-4.906 0-9.904-4.996-9.904-9.906h1.608c0 4.033 4.265 8.298 8.296 8.298v1.608z"/><path d="M8.435 29.68l-1.137-1.137 15.784-15.784 1.137 1.137L8.435 29.68z"/></g></svg>