<svg width="22" height="40" xmlns="http://www.w3.org/2000/svg"><g fill="#E1E9EC" fill-rule="evenodd"><path d="M21.414 36.43l-7.831 2.85c-.432.157-.905-.05-1.054-.46L.074 4.6c-.15-.41.08-.872.512-1.03L8.417.72c.43-.156.904.049 1.054.46L21.926 35.4c.149.41-.082.872-.512 1.03zm-7.59 1.076l6.265-2.28L8.175 2.494l-6.264 2.28 11.914 32.732z"/><path d="M6.668 8.097l-3.133 1.14c-.432.158-.904-.048-1.053-.459-.15-.41.08-.871.512-1.029l3.132-1.14c.432-.157.905.049 1.054.46.15.41-.08.87-.512 1.028zm-.483 3.546l-1.567.57c-.432.157-.904-.048-1.053-.459-.15-.41.08-.872.512-1.029l1.566-.57c.432-.157.905.048 1.054.459.15.41-.08.872-.512 1.029zm2.649 2.406l-3.132 1.14c-.433.157-.905-.049-1.054-.46-.15-.41.08-.87.512-1.028l3.132-1.14c.433-.158.905.048 1.054.459.15.41-.08.871-.512 1.029zm-.484 3.545l-1.565.57c-.433.158-.905-.048-1.054-.459-.15-.41.08-.871.512-1.028l1.566-.57c.433-.158.905.048 1.054.458.15.411-.08.872-.512 1.03zM11 20l-3.132 1.14c-.433.157-.905-.048-1.054-.459-.15-.41.08-.871.512-1.029l3.132-1.14c.433-.157.905.048 1.054.46.15.41-.08.87-.512 1.028zm-.483 3.546l-1.566.57c-.433.157-.905-.05-1.054-.46-.149-.408.08-.87.512-1.028l1.566-.57c.433-.157.905.05 1.054.459.15.409-.08.871-.512 1.029zm2.649 2.405l-3.132 1.14c-.432.158-.905-.05-1.054-.458-.149-.41.08-.872.512-1.03l3.133-1.14c.432-.157.905.05 1.053.46.15.409-.08.871-.512 1.028zm-.483 3.546l-1.566.57c-.432.157-.905-.05-1.054-.459-.149-.409.08-.871.512-1.029l1.567-.57c.432-.157.904.05 1.053.46.15.408-.08.87-.512 1.028zm2.649 2.406l-3.132 1.14c-.432.157-.905-.05-1.054-.46-.149-.408.08-.87.512-1.028l3.133-1.14c.432-.157.905.05 1.054.459.148.409-.08.871-.513 1.029zm-.482 3.546l-1.567.57c-.432.157-.905-.05-1.054-.46-.149-.409.08-.871.512-1.028l1.567-.57c.432-.158.905.05 1.053.459.15.409-.08.871-.512 1.029z"/></g></svg>