<svg version="1.1" id="Layer_1" xmlns="http://www.w3.org/2000/svg" x="0" y="0" viewBox="0 0 30 30" xml:space="preserve"><style>.st0{display:none}.st1{fill:#009eff}.st1,.st2{display:inline}.st3{fill:#009eff}.st5{fill:#1658ff}</style><g id="_x31_" class="st0"><path class="st1" d="M27 29.4H3.5V.3h17.7V1H4.1v27.7h22.2V6.3h.7z"/><path class="st1" d="M26.9 6.9h-6l-.3-.3v-6l.6-.2L27 6.2l-.1.7zm-5.7-.7h4.9l-4.9-4.9v4.9z"/><g class="st2"><path class="st3" d="M15.8 25.5h-.2c-1.3-.1-2.1-.9-2.1-2.2 0-1.1-.1-1.6-1-2.5l-.2-.2.2-.2c.9-.9.9-1.4.9-2.5 0-1.3.8-2.1 2.1-2.2h.6v.7h-.6c-.7 0-1.4.3-1.5 1.5 0 1.2-.1 1.8-.9 2.7.8.9.9 1.6.9 2.7 0 1.2.8 1.5 1.5 1.5h.6v.7h-.3zm3.5 0h-.5v-.7h.6c.7 0 1.4-.3 1.5-1.5 0-1.2.1-1.8.9-2.7-.7-1-.8-1.6-.8-2.8s-.8-1.5-1.5-1.5h-.6v-.7h.6c1.3.1 2.1.9 2.1 2.2 0 1.1.1 1.6.9 2.5l.2.2-.2.2c-.9.9-.9 1.4-1 2.5 0 1.3-.8 2.1-2.1 2.2.1.1 0 .1-.1.1z"/></g><g class="st2"><path class="st3" d="M6.8 7.8l.5-.5c.3.4.6.5.9.5.6 0 .8-.3.8-1V4.6H7.1v-.7h2.7V7c0 .9-.4 1.6-1.6 1.6-.5-.1-1.1-.3-1.4-.8zm4.1.1l.5-.6c.3.3.8.5 1.3.5s.8-.2.8-.6-.3-.5-.8-.7l-.7-.2c-.5-.2-1-.5-1-1.2s.7-1.3 1.6-1.3c.6 0 1.1.2 1.5.6l-.4.5c-.3-.2-.6-.4-1.1-.4-.4 0-.7.2-.7.5 0 .4.4.5.8.6l.6.4c.6.2 1 .6 1 1.2 0 .7-.6 1.4-1.7 1.4-.7-.1-1.3-.3-1.7-.7z"/></g></g><g id="Layer_2_1_" class="st0"><g class="st2"><path class="st3" d="M6 5.2L3.4 2.6.9 5.1l-.4-.4 2.9-2.9 3 3z"/></g><g class="st2"><path class="st3" d="M3.1 2.2h.6v.6h-.6zm6.4 16.3v-.6c.4 0 .7-.1 1.1-.1l.1.5c-.4.1-.8.2-1.2.2zm-1.1-.1c-.4-.1-.8-.2-1.1-.3l.2-.5c.3.1.7.2 1 .3l-.1.5zm3.4-.4l-.2-.5c.3-.1.6-.3.9-.5l.3.5c-.3.1-.6.3-1 .5zm-5.6-.4c-.3-.2-.6-.4-.9-.7l.4-.4.9.6-.4.5zm7.5-.9l-.4-.4c.3-.2.5-.5.7-.8l.5.3c-.3.3-.5.6-.8.9zm-9.3-.6c-.2-.3-.4-.6-.6-1l.5-.3.6.9-.5.4zM15 14.8l-.5-.2c.1-.3.3-.7.3-1l.5.1c0 .3-.1.7-.3 1.1zM3.4 14c-.1-.4-.2-.8-.2-1.1l.6-.1c0 .4.1.7.2 1l-.6.2zm12.2-1.5H15v-1.1h.6v1.1zm-12.5-.8v-1.1h.6v1.1h-.6zm12.5-1.4H15V9.2h.6v1.1zM3.7 9.5h-.6V8.4h.6v1.1zM21.8 9h-.6V7.9l.5-.1V9h.1zm-6.2-.9L15 8c0-.4.2-.8.3-1.1l.5.2c-.1.3-.2.6-.2 1zM3.7 7.2h-.6V6.1h.6v1.1zm17.1-.3c-.2-.3-.4-.6-.7-.8l.4-.4c.3.3.6.6.8.9l-.5.3zm-4.3-.6l-.4-.4c.3-.3.6-.5 1-.7l.2.5c-.3.2-.6.4-.8.6zm2.8-.6c-.3-.1-.7-.2-1-.1V5c.4 0 .8 0 1.2.2l-.2.5zM3.7 5h-.6V3.9h.6V5zm17.5 5.1h.6v.6h-.6z"/></g><g class="st2"><path class="st3" d="M21.5 28.5c0-2-1.9-3.8-5.7-5.6-.3-.1-.4-.3-.4-.6 0-.4.2-.8.7-1 .7-.5 1.7-.5 2.6-.1.6.3 1 .5 1.3.7v-8c.1-.7.7-1.3 1.4-1.3s1.3.6 1.4 1.3v6.3h-.6v-6.3c0-.4-.4-.8-.8-.8s-.8.4-.8.8v9l-.4-.3s-.6-.4-1.7-.9-1.9-.1-2.1 0c-.3.2-.4.4-.4.5 0 0 0 .1.1.1 4 1.9 6 3.9 6 6.1l-.6.1z"/></g><g class="st2"><path class="st3" d="M25 18.3h-.6v-.8c0-.4-.4-.8-.8-.8s-.8.4-.8.8h-.6c.1-.7.7-1.3 1.4-1.3s1.3.6 1.4 1.3v.8z"/></g><g class="st2"><path class="st3" d="M26.7 20.2v-1.8c0-.4-.4-.8-.8-.8s-.8.3-.8.7v1.9h-.6.3-.3v-1.9c.1-.7.7-1.2 1.4-1.2s1.3.6 1.4 1.3v1.9l-.6-.1z"/></g><g class="st2"><path class="st3" d="M29.5 28.5h-.6v-9.1c0-.4-.4-.8-.8-.8s-.8.4-.8.8h-.6c.1-.7.7-1.3 1.4-1.3s1.3.6 1.4 1.3v9.1z"/></g><g class="st2"><path class="st3" d="M21.7 27.9h7.5v.6h-7.5z"/></g></g><g id="Layer_3" class="st0"><g class="st2"><path class="st3" d="M11.7 22h-.6v-1.6c0-.3-.3-.8-.8-1.4-.4-.5-.8-1.2-1.2-2.1-.8-1.5-.7-2.9-.7-3 0-3.7 3-6.7 6.7-6.7v.6c-3.4 0-6.2 2.8-6.2 6.2 0 0-.1 1.4.6 2.7.4.8.9 1.5 1.2 2 .5.7.8 1.2.8 1.7.2 0 .2 1.6.2 1.6z"/></g><g class="st2"><path class="st3" d="M18.7 22v-1.6c0-.5.4-1 .9-1.8.3-.5.8-1.2 1.2-2 .7-1.3.6-2.7.6-2.7 0-3.4-2.8-6.2-6.2-6.2v-.5c3.7 0 6.7 3 6.7 6.7 0 0 .1 1.5-.7 3-.4.9-.9 1.5-1.2 2.1-.4.7-.7 1.1-.8 1.5V22h-.5z"/></g><g class="st2"><path class="st3" d="M17.7 26.4h-5c-.9 0-1.5-.7-1.5-1.6v-2.9h.6v2.9c0 .5.4 1 1 1h5c.5 0 1-.4 1-1v-2.9h.6v2.9c-.2.9-.9 1.6-1.7 1.6z"/></g><g class="st2"><path class="st3" d="M11.5 20.8h7.4v.6h-7.4z"/></g><g class="st2"><path class="st3" d="M11.4 23H19v.6h-7.6z"/></g><g class="st2"><path class="st3" d="M15.2 28.8c-1.5 0-2.7-1.2-2.7-2.7h.5c0 1.2 1 2.1 2.1 2.1s2.1-1 2.1-2.1h.6c0 1.5-1.2 2.7-2.6 2.7z"/></g><g class="st2"><path class="st3" d="M15.2 4.3c-.2 0-.3-.1-.3-.3V.9c0-.2.1-.3.3-.3s.3.1.3.3V4c-.1.2-.2.3-.3.3z"/></g><g class="st2"><path class="st3" d="M4.5 14.3h-3c-.2 0-.3-.1-.3-.3s.1-.3.3-.3h3c.2 0 .3.1.3.3 0 .1-.2.3-.3.3zm3-7.1c-.1 0-.1 0-.2-.1L5.2 4.9c-.2-.1-.2-.2 0-.4.1-.1.3-.1.4 0l2.1 2.1c.1.1.1.3 0 .4 0 .1-.1.2-.2.2zM5.3 23.5c-.1 0-.1 0-.2-.1s-.1-.3 0-.4l2.1-2.1c.1-.1.3-.1.4 0s.1.3 0 .4l-2.1 2.1c-.1.1-.1.1-.2.1z"/></g><g class="st2"><path class="st3" d="M28.8 14.3h-3c-.2 0-.3-.1-.3-.3s.1-.3.3-.3h3c.2 0 .3.1.3.3 0 .1-.1.3-.3.3zm-6-7.1c-.1 0-.1 0-.2-.1s-.1-.3 0-.4l2.1-2.1c.1-.1.3-.1.4 0s.1.3 0 .4L23 7.1c-.1 0-.1.1-.2.1zM25 23.5c-.1 0-.1 0-.2-.1l-2.1-2.1c-.1-.1-.1-.3 0-.4s.3-.1.4 0l2.1 2.1c.1.1.1.3 0 .4-.1.1-.1.1-.2.1z"/></g></g><path fill="#fff" d="M8.355 4.894h18.248v21.794H8.355z"/><path class="st5" d="M17.668 29.501a.877.877 0 01-.827-.585l-6.282-16.707a.873.873 0 01.534-1.122l.779-.274a.866.866 0 01.668.037c.211.101.37.278.447.498l5.702 16.921c.076.216.063.454-.038.665s-.278.37-.498.447l-.196.069a.835.835 0 01-.289.051zm-1.747-4.788l1.501 3.991c.05.14.197.21.33.163l.195-.069a.252.252 0 00.146-.131.252.252 0 00.011-.196L12.402 11.55a.26.26 0 00-.326-.153l-.779.274a.258.258 0 00-.157.327l4.781 12.715z"/><path transform="rotate(-19.335 12.62 14.138)" class="st5" d="M11.658 13.83h1.924v.618h-1.924z"/><path transform="rotate(-19.335 13.442 16.525)" class="st5" d="M12.53 16.217h1.825v.618H12.53z"/><path class="st5" d="M10.725 11.31c-.354 0-.656-.1-.909-.297-.565-.443-.82-1.33-.759-2.638.042-.9.363-2.357.377-2.419l.104-.468.383.287c.052.039 1.274.957 1.874 1.637.595.675 1.262 1.662 1.058 2.532-.118.505-.5.892-1.135 1.151l-.014.005-.268.094a2.448 2.448 0 01-.711.116zm-.787-4.738c-.098.502-.238 1.291-.263 1.832-.05 1.065.136 1.819.522 2.121.245.191.588.219 1.048.082l.245-.087c.441-.181.689-.416.76-.717.112-.478-.214-1.182-.919-1.982-.359-.405-.987-.926-1.393-1.249z"/><path class="st5" d="M24.903 25.261h-7.658v-.618h7.039V2.519H6.979v22.124h8.476v.618H6.361V1.901h18.542z"/><path transform="matrix(1 -.0095 .0095 1 -.02 .077)" class="st5" d="M7.74.776h.618v2.705H7.74z"/><path transform="matrix(1 -.0096 .0096 1 -.02 .09)" class="st5" d="M9.049.776h.618v2.705h-.618z"/><path transform="matrix(1 -.0096 .0096 1 -.02 .12)" class="st5" d="M12.181.776h.618v2.705h-.618z"/><path transform="matrix(1 -.0096 .0096 1 -.02 .133)" class="st5" d="M13.49.776h.618v2.705h-.618z"/><path transform="matrix(1 -.0096 .0096 1 -.02 .162)" class="st5" d="M16.54.776h.618v2.705h-.618z"/><path transform="matrix(1 -.0096 .0096 1 -.02 .174)" class="st5" d="M17.848.776h.618v2.705h-.618z"/><path transform="matrix(1 -.0096 .0096 1 -.02 .204)" class="st5" d="M20.919.776h.618v2.705h-.618z"/><path transform="matrix(1 -.0096 .0096 1 -.02 .216)" class="st5" d="M22.228.776h.618v2.705h-.618z"/><path d="M19.521 10.602c-1.143 0-2.073-.93-2.073-2.073s.93-2.073 2.073-2.073 2.073.93 2.073 2.073-.93 2.073-2.073 2.073zm0-3.528a1.456 1.456 0 10.001 2.909 1.456 1.456 0 00-.001-2.909zm0 9.274c-1.143 0-2.073-.93-2.073-2.073s.93-2.073 2.073-2.073 2.073.93 2.073 2.073-.93 2.073-2.073 2.073zm0-3.528c-.802 0-1.455.652-1.455 1.455 0 .802.652 1.455 1.455 1.455s1.455-.653 1.455-1.455c0-.803-.653-1.455-1.455-1.455zm0 9.18c-1.143 0-2.073-.93-2.073-2.073s.93-2.073 2.073-2.073 2.073.93 2.073 2.073S20.664 22 19.521 22zm0-3.529a1.456 1.456 0 101.455 1.455c0-.802-.653-1.455-1.455-1.455z" fill="#f47d09"/></svg>