<svg version="1.1" id="Layer_1" xmlns="http://www.w3.org/2000/svg" x="0" y="0" viewBox="0 0 30 30" xml:space="preserve"><style>.st0{display:none}.st1{fill:#009eff}.st1,.st2{display:inline}.st3{fill:#009eff}.st4{fill:#1658ff}</style><g id="_x31_" class="st0"><path class="st1" d="M27 29.4H3.5V.3h17.7V1H4.1v27.7h22.2V6.3h.7z"/><path class="st1" d="M26.9 6.9h-6l-.3-.3v-6l.6-.2L27 6.2l-.1.7zm-5.7-.7h4.9l-4.9-4.9v4.9z"/><g class="st2"><path class="st3" d="M15.8 25.5h-.2c-1.3-.1-2.1-.9-2.1-2.2 0-1.1-.1-1.6-1-2.5l-.2-.2.2-.2c.9-.9.9-1.4.9-2.5 0-1.3.8-2.1 2.1-2.2h.6v.7h-.6c-.7 0-1.4.3-1.5 1.5 0 1.2-.1 1.8-.9 2.7.8.9.9 1.6.9 2.7 0 1.2.8 1.5 1.5 1.5h.6v.7h-.3zm3.5 0h-.5v-.7h.6c.7 0 1.4-.3 1.5-1.5 0-1.2.1-1.8.9-2.7-.7-1-.8-1.6-.8-2.8s-.8-1.5-1.5-1.5h-.6v-.7h.6c1.3.1 2.1.9 2.1 2.2 0 1.1.1 1.6.9 2.5l.2.2-.2.2c-.9.9-.9 1.4-1 2.5 0 1.3-.8 2.1-2.1 2.2.1.1 0 .1-.1.1z"/></g><g class="st2"><path class="st3" d="M6.8 7.8l.5-.5c.3.4.6.5.9.5.6 0 .8-.3.8-1V4.6H7.1v-.7h2.7V7c0 .9-.4 1.6-1.6 1.6-.5-.1-1.1-.3-1.4-.8zm4.1.1l.5-.6c.3.3.8.5 1.3.5s.8-.2.8-.6-.3-.5-.8-.7l-.7-.2c-.5-.2-1-.5-1-1.2s.7-1.3 1.6-1.3c.6 0 1.1.2 1.5.6l-.4.5c-.3-.2-.6-.4-1.1-.4-.4 0-.7.2-.7.5 0 .4.4.5.8.6l.6.4c.6.2 1 .6 1 1.2 0 .7-.6 1.4-1.7 1.4-.7-.1-1.3-.3-1.7-.7z"/></g></g><g id="Layer_2_1_" class="st0"><g class="st2"><path class="st3" d="M6 5.2L3.4 2.6.9 5.1l-.4-.4 2.9-2.9 3 3z"/></g><g class="st2"><path class="st3" d="M3.1 2.2h.6v.6h-.6zm6.4 16.3v-.6c.4 0 .7-.1 1.1-.1l.1.5c-.4.1-.8.2-1.2.2zm-1.1-.1c-.4-.1-.8-.2-1.1-.3l.2-.5c.3.1.7.2 1 .3l-.1.5zm3.4-.4l-.2-.5c.3-.1.6-.3.9-.5l.3.5c-.3.1-.6.3-1 .5zm-5.6-.4c-.3-.2-.6-.4-.9-.7l.4-.4.9.6-.4.5zm7.5-.9l-.4-.4c.3-.2.5-.5.7-.8l.5.3c-.3.3-.5.6-.8.9zm-9.3-.6c-.2-.3-.4-.6-.6-1l.5-.3.6.9-.5.4zM15 14.8l-.5-.2c.1-.3.3-.7.3-1l.5.1c0 .3-.1.7-.3 1.1zM3.4 14c-.1-.4-.2-.8-.2-1.1l.6-.1c0 .4.1.7.2 1l-.6.2zm12.2-1.5H15v-1.1h.6v1.1zm-12.5-.8v-1.1h.6v1.1h-.6zm12.5-1.4H15V9.2h.6v1.1zM3.7 9.5h-.6V8.4h.6v1.1zM21.8 9h-.6V7.9l.5-.1V9h.1zm-6.2-.9L15 8c0-.4.2-.8.3-1.1l.5.2c-.1.3-.2.6-.2 1zM3.7 7.2h-.6V6.1h.6v1.1zm17.1-.3c-.2-.3-.4-.6-.7-.8l.4-.4c.3.3.6.6.8.9l-.5.3zm-4.3-.6l-.4-.4c.3-.3.6-.5 1-.7l.2.5c-.3.2-.6.4-.8.6zm2.8-.6c-.3-.1-.7-.2-1-.1V5c.4 0 .8 0 1.2.2l-.2.5zM3.7 5h-.6V3.9h.6V5zm17.5 5.1h.6v.6h-.6z"/></g><g class="st2"><path class="st3" d="M21.5 28.5c0-2-1.9-3.8-5.7-5.6-.3-.1-.4-.3-.4-.6 0-.4.2-.8.7-1 .7-.5 1.7-.5 2.6-.1.6.3 1 .5 1.3.7v-8c.1-.7.7-1.3 1.4-1.3s1.3.6 1.4 1.3v6.3h-.6v-6.3c0-.4-.4-.8-.8-.8s-.8.4-.8.8v9l-.4-.3s-.6-.4-1.7-.9-1.9-.1-2.1 0c-.3.2-.4.4-.4.5 0 0 0 .1.1.1 4 1.9 6 3.9 6 6.1l-.6.1z"/></g><g class="st2"><path class="st3" d="M25 18.3h-.6v-.8c0-.4-.4-.8-.8-.8s-.8.4-.8.8h-.6c.1-.7.7-1.3 1.4-1.3s1.3.6 1.4 1.3v.8z"/></g><g class="st2"><path class="st3" d="M26.7 20.2v-1.8c0-.4-.4-.8-.8-.8s-.8.3-.8.7v1.9h-.6.3-.3v-1.9c.1-.7.7-1.2 1.4-1.2s1.3.6 1.4 1.3v1.9l-.6-.1z"/></g><g class="st2"><path class="st3" d="M29.5 28.5h-.6v-9.1c0-.4-.4-.8-.8-.8s-.8.4-.8.8h-.6c.1-.7.7-1.3 1.4-1.3s1.3.6 1.4 1.3v9.1z"/></g><g class="st2"><path class="st3" d="M21.7 27.9h7.5v.6h-7.5z"/></g></g><path class="st4" d="M11.68 21.985l-.57-.007c.001-.076-.003-1.455-.008-1.557-.045-.337-.342-.795-.754-1.43a22.242 22.242 0 01-1.234-2.083c-.75-1.466-.691-2.908-.688-2.968 0-3.703 3.023-6.726 6.739-6.726v.57a6.175 6.175 0 00-6.169 6.169 6.016 6.016 0 00.626 2.696c.428.838.859 1.5 1.204 2.032.453.697.779 1.201.843 1.682.011.08.011 1.608.011 1.622zm6.969.018c0-.013 0-1.519.004-1.564.038-.504.379-1.029.85-1.755.346-.532.776-1.195 1.204-2.032.678-1.326.627-2.669.627-2.683 0-3.415-2.768-6.182-6.169-6.182v-.57a6.747 6.747 0 016.739 6.739c.003.047.061 1.489-.689 2.955-.442.864-.881 1.54-1.234 2.083-.425.655-.733 1.128-.76 1.486-.001.051-.003 1.429-.002 1.518l-.57.005z"/><path class="st4" d="M17.683 26.397h-5.031c-.855 0-1.55-.695-1.55-1.55v-2.903h.57v2.903c0 .54.44.98.98.98h5.031c.54 0 .98-.44.98-.98v-2.903h.57v2.903c0 .855-.695 1.55-1.55 1.55zm-6.219-5.585h7.442v.57h-7.442z"/><path class="st4" d="M11.385 23.006h7.56v.57h-7.56zm3.761 5.858a2.698 2.698 0 01-2.694-2.694h.57c0 1.171.953 2.124 2.124 2.124s2.124-.953 2.124-2.124h.57a2.698 2.698 0 01-2.694 2.694z"/><path d="M15.146 4.343a.285.285 0 01-.285-.285V.885a.285.285 0 11.57 0v3.173a.286.286 0 01-.285.285zm-10.673 9.93H1.476a.285.285 0 110-.57h2.997a.285.285 0 110 .57zm3.026-7.08a.285.285 0 01-.202-.084L5.153 4.965a.285.285 0 01.403-.403L7.7 6.706a.285.285 0 01-.201.487zM5.295 23.556a.285.285 0 01-.202-.487l2.115-2.115a.285.285 0 01.403.403l-2.115 2.115a.28.28 0 01-.201.084zm23.52-9.283h-2.997a.285.285 0 110-.57h2.997a.285.285 0 110 .57zm-6.023-7.08a.285.285 0 01-.202-.487l2.145-2.145a.285.285 0 01.403.403l-2.145 2.145a.28.28 0 01-.201.084zm2.204 16.363a.285.285 0 01-.202-.084l-2.115-2.115a.285.285 0 01.403-.403l2.115 2.115a.285.285 0 01-.201.487z" fill="#f47d09"/><circle cx="15.165" cy="13.703" r="2.508" fill="#fff"/></svg>