<svg width="45" height="45" xmlns="http://www.w3.org/2000/svg"><g fill="#E1E9EC" fill-rule="evenodd"><path d="M13.66 9.93L7.364 8.594a.805.805 0 01-.62-.954l1.338-6.294a.805.805 0 01.954-.62l6.295 1.338c.434.092.711.52.62.954l-1.339 6.294a.805.805 0 01-.954.62zM8.485 7.188l4.72 1.003 1.004-4.72-4.72-1.004-1.004 4.72zm33.498 8.763l-6.294-1.338a.806.806 0 01-.62-.954l1.338-6.294a.806.806 0 01.954-.62l6.294 1.338c.433.092.712.52.62.954l-1.338 6.295a.806.806 0 01-.954.62zm-5.173-2.744l4.72 1.003 1.004-4.72-4.72-1.004-1.004 4.72zM7.639 38.254l-6.294-1.337a.806.806 0 01-.62-.954l1.338-6.295a.806.806 0 01.954-.62l6.294 1.339a.806.806 0 01.62.954l-1.338 6.294a.806.806 0 01-.954.62zM2.466 35.51l4.72 1.004 1.004-4.72-4.72-1.004-1.004 4.72zm33.497 8.765l-6.295-1.338a.807.807 0 01-.62-.954l1.339-6.294a.807.807 0 01.954-.62l6.294 1.338a.807.807 0 01.62.954l-1.338 6.294a.807.807 0 01-.954.62zM30.79 41.53l4.72 1.003 1.004-4.72-4.72-1.004-1.004 4.72z"/><path d="M38.384 13.541l1.573.335-5.017 23.603-1.573-.334 5.017-23.604zM10.06 7.521l1.573.334L6.616 31.46l-1.573-.335L10.06 7.521zm3.816-2.478l23.603 5.017-.334 1.573L13.54 6.616l.335-1.573zM7.855 33.367l23.604 5.017-.335 1.573L7.521 34.94l.334-1.573z"/></g></svg>