<svg version="1.1" id="Layer_1" xmlns="http://www.w3.org/2000/svg" x="0" y="0" viewBox="0 0 30 30" xml:space="preserve"><style>.st1{display:none}.st2{fill:#009eff}.st2,.st3{display:inline}.st4{fill:#009eff}.st5{fill:#1658ff}.st6{fill:#f47d09}</style><circle cx="15.645" cy="15" r="8.393" fill="#fff"/><g id="_x31_" class="st1"><path class="st2" d="M27 29.4H3.5V.3h17.7V1H4.1v27.7h22.2V6.3h.7z"/><path class="st2" d="M26.9 6.9h-6l-.3-.3v-6l.6-.2L27 6.2l-.1.7zm-5.7-.7h4.9l-4.9-4.9v4.9z"/><g class="st3"><path class="st4" d="M15.8 25.5h-.2c-1.3-.1-2.1-.9-2.1-2.2 0-1.1-.1-1.6-1-2.5l-.2-.2.2-.2c.9-.9.9-1.4.9-2.5 0-1.3.8-2.1 2.1-2.2h.6v.7h-.6c-.7 0-1.4.3-1.5 1.5 0 1.2-.1 1.8-.9 2.7.8.9.9 1.6.9 2.7 0 1.2.8 1.5 1.5 1.5h.6v.7h-.3zm3.5 0h-.5v-.7h.6c.7 0 1.4-.3 1.5-1.5 0-1.2.1-1.8.9-2.7-.7-1-.8-1.6-.8-2.8s-.8-1.5-1.5-1.5h-.6v-.7h.6c1.3.1 2.1.9 2.1 2.2 0 1.1.1 1.6.9 2.5l.2.2-.2.2c-.9.9-.9 1.4-1 2.5 0 1.3-.8 2.1-2.1 2.2.1.1 0 .1-.1.1z"/></g><g class="st3"><path class="st4" d="M6.8 7.8l.5-.5c.3.4.6.5.9.5.6 0 .8-.3.8-1V4.6H7.1v-.7h2.7V7c0 .9-.4 1.6-1.6 1.6-.5-.1-1.1-.3-1.4-.8zm4.1.1l.5-.6c.3.3.8.5 1.3.5s.8-.2.8-.6-.3-.5-.8-.7l-.7-.2c-.5-.2-1-.5-1-1.2s.7-1.3 1.6-1.3c.6 0 1.1.2 1.5.6l-.4.5c-.3-.2-.6-.4-1.1-.4-.4 0-.7.2-.7.5 0 .4.4.5.8.6l.6.4c.6.2 1 .6 1 1.2 0 .7-.6 1.4-1.7 1.4-.7-.1-1.3-.3-1.7-.7z"/></g></g><g id="Layer_2_1_" class="st1"><g class="st3"><path class="st4" d="M6 5.2L3.4 2.6.9 5.1l-.4-.4 2.9-2.9 3 3z"/></g><g class="st3"><path class="st4" d="M3.1 2.2h.6v.6h-.6zm6.4 16.3v-.6c.4 0 .7-.1 1.1-.1l.1.5c-.4.1-.8.2-1.2.2zm-1.1-.1c-.4-.1-.8-.2-1.1-.3l.2-.5c.3.1.7.2 1 .3l-.1.5zm3.4-.4l-.2-.5c.3-.1.6-.3.9-.5l.3.5c-.3.1-.6.3-1 .5zm-5.6-.4c-.3-.2-.6-.4-.9-.7l.4-.4.9.6-.4.5zm7.5-.9l-.4-.4c.3-.2.5-.5.7-.8l.5.3c-.3.3-.5.6-.8.9zm-9.3-.6c-.2-.3-.4-.6-.6-1l.5-.3.6.9-.5.4zM15 14.8l-.5-.2c.1-.3.3-.7.3-1l.5.1c0 .3-.1.7-.3 1.1zM3.4 14c-.1-.4-.2-.8-.2-1.1l.6-.1c0 .4.1.7.2 1l-.6.2zm12.2-1.5H15v-1.1h.6v1.1zm-12.5-.8v-1.1h.6v1.1h-.6zm12.5-1.4H15V9.2h.6v1.1zM3.7 9.5h-.6V8.4h.6v1.1zM21.8 9h-.6V7.9l.5-.1V9h.1zm-6.2-.9L15 8c0-.4.2-.8.3-1.1l.5.2c-.1.3-.2.6-.2 1zM3.7 7.2h-.6V6.1h.6v1.1zm17.1-.3c-.2-.3-.4-.6-.7-.8l.4-.4c.3.3.6.6.8.9l-.5.3zm-4.3-.6l-.4-.4c.3-.3.6-.5 1-.7l.2.5c-.3.2-.6.4-.8.6zm2.8-.6c-.3-.1-.7-.2-1-.1V5c.4 0 .8 0 1.2.2l-.2.5zM3.7 5h-.6V3.9h.6V5zm17.5 5.1h.6v.6h-.6z"/></g><g class="st3"><path class="st4" d="M21.5 28.5c0-2-1.9-3.8-5.7-5.6-.3-.1-.4-.3-.4-.6 0-.4.2-.8.7-1 .7-.5 1.7-.5 2.6-.1.6.3 1 .5 1.3.7v-8c.1-.7.7-1.3 1.4-1.3s1.3.6 1.4 1.3v6.3h-.6v-6.3c0-.4-.4-.8-.8-.8s-.8.4-.8.8v9l-.4-.3s-.6-.4-1.7-.9-1.9-.1-2.1 0c-.3.2-.4.4-.4.5 0 0 0 .1.1.1 4 1.9 6 3.9 6 6.1l-.6.1z"/></g><g class="st3"><path class="st4" d="M25 18.3h-.6v-.8c0-.4-.4-.8-.8-.8s-.8.4-.8.8h-.6c.1-.7.7-1.3 1.4-1.3s1.3.6 1.4 1.3v.8z"/></g><g class="st3"><path class="st4" d="M26.7 20.2v-1.8c0-.4-.4-.8-.8-.8s-.8.3-.8.7v1.9h-.6.3-.3v-1.9c.1-.7.7-1.2 1.4-1.2s1.3.6 1.4 1.3v1.9l-.6-.1z"/></g><g class="st3"><path class="st4" d="M29.5 28.5h-.6v-9.1c0-.4-.4-.8-.8-.8s-.8.4-.8.8h-.6c.1-.7.7-1.3 1.4-1.3s1.3.6 1.4 1.3v9.1z"/></g><g class="st3"><path class="st4" d="M21.7 27.9h7.5v.6h-7.5z"/></g></g><g id="Layer_3" class="st1"><g class="st3"><path class="st4" d="M11.7 22h-.6v-1.6c0-.3-.3-.8-.8-1.4-.4-.5-.8-1.2-1.2-2.1-.8-1.5-.7-2.9-.7-3 0-3.7 3-6.7 6.7-6.7v.6c-3.4 0-6.2 2.8-6.2 6.2 0 0-.1 1.4.6 2.7.4.8.9 1.5 1.2 2 .5.7.8 1.2.8 1.7.2 0 .2 1.6.2 1.6z"/></g><g class="st3"><path class="st4" d="M18.7 22v-1.6c0-.5.4-1 .9-1.8.3-.5.8-1.2 1.2-2 .7-1.3.6-2.7.6-2.7 0-3.4-2.8-6.2-6.2-6.2v-.5c3.7 0 6.7 3 6.7 6.7 0 0 .1 1.5-.7 3-.4.9-.9 1.5-1.2 2.1-.4.7-.7 1.1-.8 1.5V22h-.5z"/></g><g class="st3"><path class="st4" d="M17.7 26.4h-5c-.9 0-1.5-.7-1.5-1.6v-2.9h.6v2.9c0 .5.4 1 1 1h5c.5 0 1-.4 1-1v-2.9h.6v2.9c-.2.9-.9 1.6-1.7 1.6z"/></g><g class="st3"><path class="st4" d="M11.5 20.8h7.4v.6h-7.4z"/></g><g class="st3"><path class="st4" d="M11.4 23H19v.6h-7.6z"/></g><g class="st3"><path class="st4" d="M15.2 28.8c-1.5 0-2.7-1.2-2.7-2.7h.5c0 1.2 1 2.1 2.1 2.1s2.1-1 2.1-2.1h.6c0 1.5-1.2 2.7-2.6 2.7z"/></g><g class="st3"><path class="st4" d="M15.2 4.3c-.2 0-.3-.1-.3-.3V.9c0-.2.1-.3.3-.3s.3.1.3.3V4c-.1.2-.2.3-.3.3z"/></g><g class="st3"><path class="st4" d="M4.5 14.3h-3c-.2 0-.3-.1-.3-.3s.1-.3.3-.3h3c.2 0 .3.1.3.3 0 .1-.2.3-.3.3zm3-7.1c-.1 0-.1 0-.2-.1L5.2 4.9c-.2-.1-.2-.2 0-.4.1-.1.3-.1.4 0l2.1 2.1c.1.1.1.3 0 .4 0 .1-.1.2-.2.2zM5.3 23.5c-.1 0-.1 0-.2-.1s-.1-.3 0-.4l2.1-2.1c.1-.1.3-.1.4 0s.1.3 0 .4l-2.1 2.1c-.1.1-.1.1-.2.1z"/></g><g class="st3"><path class="st4" d="M28.8 14.3h-3c-.2 0-.3-.1-.3-.3s.1-.3.3-.3h3c.2 0 .3.1.3.3 0 .1-.1.3-.3.3zm-6-7.1c-.1 0-.1 0-.2-.1s-.1-.3 0-.4l2.1-2.1c.1-.1.3-.1.4 0s.1.3 0 .4L23 7.1c-.1 0-.1.1-.2.1zM25 23.5c-.1 0-.1 0-.2-.1l-2.1-2.1c-.1-.1-.1-.3 0-.4s.3-.1.4 0l2.1 2.1c.1.1.1.3 0 .4-.1.1-.1.1-.2.1z"/></g></g><g id="Layer_4" class="st1"><g class="st3"><path class="st4" d="M17.4 29.3c-.4 0-.7-.2-.8-.6L10.3 12c-.2-.5.1-1 .5-1.1l.8-.3c.2-.1.5-.1.7 0s.4.3.4.5L18.4 28c.2.5-.1.9-.5 1.1l-.2.1c-.1.1-.2.1-.3.1zm-1.7-4.7l1.5 4c0 .1.1.1.1.2h.2l.2-.1c.1 0 .2-.2.2-.3l-5.7-16.9c0-.1-.1-.1-.1-.1h-.2l-.8.3c-.1 0-.2.2-.2.3l4.8 12.6z"/><path transform="rotate(-19.369 12.351 14.02)" class="st4" d="M11.402 13.719h1.9v.6h-1.9z"/><path transform="rotate(-19.369 13.206 16.409)" class="st4" d="M12.307 16.108h1.8v.6h-1.8z"/><path class="st4" d="M10.5 11.2c-.4 0-.7-.1-.9-.3-.6-.5-.8-1.3-.7-2.6 0-.9.4-2.4.4-2.4l.1-.5.4.3c.1 0 1.3 1 1.9 1.6.5.7 1.1 1.7.9 2.5-.1.5-.5.9-1.1 1.1l-.3.1c-.2.1-.5.2-.7.2zm-.8-4.7c-.1.5-.2 1.2-.2 1.8 0 1.1.1 1.8.5 2.1.2.2.6.2 1 .1l.2-.1c.5-.2.8-.4.8-.7.1-.5-.2-1.2-.9-2-.3-.4-1-.9-1.4-1.2z"/></g><g class="st3"><path class="st4" d="M24.7 25.1H17v-.6h7V2.4H6.8v22.1h8.4v.6h-9V1.8h18.5z"/></g><g class="st3"><path transform="rotate(-.55 7.802 2.12)" class="st4" d="M7.501.7h.6v2.7h-.6z"/><path transform="matrix(1 -.0096 .0096 1 -.02 .087)" class="st4" d="M8.801.701h.6v2.7h-.6z"/><path transform="matrix(1 -.0096 .0096 1 -.02 .118)" class="st4" d="M12.002.7h.6v2.7h-.6z"/><path transform="matrix(1 -.0095 .0095 1 -.019 .13)" class="st4" d="M13.302.701h.6v2.7h-.6z"/><path transform="matrix(1 -.0096 .0096 1 -.019 .16)" class="st4" d="M16.302.7h.6v2.7h-.6z"/><path transform="matrix(1 -.0096 .0096 1 -.019 .172)" class="st4" d="M17.602.7h.6v2.7h-.6z"/><path transform="rotate(-.55 21 2.049)" class="st4" d="M20.702.7h.6v2.7h-.6z"/><path transform="matrix(1 -.0096 .0096 1 -.019 .214)" class="st4" d="M22.002.7h.6v2.7h-.6z"/></g><g class="st3"><path class="st4" d="M19.3 10.5c-1.1 0-2.1-.9-2.1-2.1s.9-2.1 2.1-2.1 2.1.9 2.1 2.1-1 2.1-2.1 2.1zm0-3.5c-.8 0-1.5.7-1.5 1.5s.7 1.5 1.5 1.5 1.5-.7 1.5-1.5c-.1-.9-.7-1.5-1.5-1.5z"/></g><g class="st3"><path class="st4" d="M19.3 16.2c-1.1 0-2.1-.9-2.1-2.1s.9-2.1 2.1-2.1 2.1.9 2.1 2.1-1 2.1-2.1 2.1zm0-3.5c-.8 0-1.5.7-1.5 1.5s.7 1.5 1.5 1.5 1.5-.7 1.5-1.5-.7-1.5-1.5-1.5z"/></g><g class="st3"><path class="st4" d="M19.3 21.8c-1.1 0-2.1-.9-2.1-2.1s.9-2.1 2.1-2.1 2.1.9 2.1 2.1-1 2.1-2.1 2.1zm0-3.5c-.8 0-1.5.7-1.5 1.5s.7 1.5 1.5 1.5 1.5-.7 1.5-1.5-.7-1.5-1.5-1.5z"/></g></g><g id="Layer_5" class="st1"><g class="st3"><path class="st4" d="M4.7 24.7v-6.6H1.1v-16h23.5v16H9.4l-4.7 6.6zm-2.9-7.3h3.6v5.1l3.7-5.1h14.8V2.8H1.8v14.6z"/></g><g class="st3"><path class="st4" d="M8.4 11.6c-1 0-1.8-.8-1.8-1.8S7.4 8 8.4 8s1.8.8 1.8 1.8-.8 1.8-1.8 1.8zm0-2.8c-.6 0-1 .5-1 1 0 .6.5 1 1 1 .6 0 1-.5 1-1 .1-.5-.4-1-1-1zm4.6 2.8c-1 0-1.8-.8-1.8-1.8S12 8 13 8s1.8.8 1.8 1.8-.8 1.8-1.8 1.8zm0-2.8c-.6 0-1 .5-1 1 0 .6.5 1 1 1 .6 0 1-.5 1-1 .1-.5-.4-1-1-1zm4.6 2.8c-1 0-1.8-.8-1.8-1.8S16.6 8 17.6 8s1.8.8 1.8 1.8-.8 1.8-1.8 1.8zm0-2.8c-.6 0-1 .5-1 1 0 .6.5 1 1 1 .6 0 1-.5 1-1 .1-.5-.4-1-1-1z"/></g><g class="st3"><path class="st4" d="M25.3 27.9l-4.7-6.6H9.4v-.7h11.5l3.7 5.1v-5.1h3.6V6h-1.8v-.7h2.5v16h-3.6z"/></g></g><g id="Layer_6" class="st1"><g class="st3"><path class="st4" d="M21.5 10.1c-.7 0-1.3-.3-1.8-.7l.4-.5c.4.4.9.5 1.4.5s1-.2 1.4-.5l.4.5c-.5.5-1.1.7-1.8.7z"/><path class="st4" d="M29.3 19.9h-5.6v-2.2h-5v-3.1h-2.8l.1-.4s.4-1.4 1.5-5.5c0-3.2 2.6-5.8 5.8-5.8s5.7 2.5 5.8 5.7v.1l.2 11.2zm-4.9-.6h4.4V8.5c-.1-2.8-2.4-5.1-5.2-5.1-2.9 0-5.2 2.3-5.2 5.2v.1c-.8 3-1.2 4.5-1.4 5.2h2.6V17h5l-.2 2.3z"/></g><g class="st3"><path class="st4" d="M8.7 17.4c-.7 0-1.3-.3-1.8-.7l.4-.5c.4.4.9.5 1.4.5s1-.2 1.4-.5l.4.5c-.5.5-1.2.7-1.8.7z"/><path class="st4" d="M6.5 27.2H.9V15.8c.1-3.1 2.7-5.7 5.8-5.7 3.2 0 5.8 2.6 5.8 5.8 1.1 4.1 1.5 5.5 1.5 5.5l.1.4h-2.8v3.1h-5l.2 2.3zm-5-.6h4.4v-2.2h5v-3.1h2.6c-.2-.7-.6-2.2-1.4-5.2V16c0-2.9-2.3-5.2-5.2-5.2-2.8 0-5.1 2.3-5.2 5.1l-.2 10.7z"/></g><g class="st3"><path class="st4" d="M6.8 8.3h-.7V6.1s-.1-.7.4-1.3c.3-.3.8-.5 1.3-.5h7.1V5h-7c-.4 0-.7.1-.9.3-.3.3-.2.8-.2.8v2.2zm9-4h.9v.6h-.9z"/><path class="st4" d="M6.4 9.1L4.9 7.6l.4-.5 1.1 1.2 1.1-1.2.5.5z"/></g><g class="st3"><path class="st4" d="M25.1 25.5h-8.9v-.6h8.9c.4 0 .7-.1.9-.3.3-.3.3-.8.3-.8v-2.2h.6v2.1s.1.7-.4 1.3c-.3.3-.8.5-1.4.5zm-10.7-.6h.9v.6h-.9z"/><path class="st4" d="M27.7 22.7l-1.1-1.1-1.1 1.1-.4-.4 1.5-1.6 1.5 1.6z"/></g></g><g id="Layer_7" class="st1"><g class="st3"><path class="st4" d="M8.9 12h-.8V8.2h3.8V9h-3z"/></g><g class="st3"><path class="st4" d="M21.8 21.8H18V21h3v-3h.8z"/></g><g class="st3"><path class="st4" d="M11.9 21.8H8.1V18h.8v3h3z"/></g><g class="st3"><path class="st4" d="M21.8 12H21V9h-2.9v-.8h3.7z"/></g><g class="st3"><path transform="rotate(-45.001 14.905 15.017)" class="st4" d="M14.505 5.917h.8v18.2h-.8z"/></g><g class="st3"><path transform="rotate(-45.001 14.99 15)" class="st4" d="M5.891 14.599h18.2v.8h-18.2z"/></g><g class="st3"><path class="st4" d="M29 29h-1.3v-.8h.5v-.4h.8zm-3 0h-1.7v-.8H26v.8zm-3.4 0H21v-.8h1.7v.8h-.1zm-3.4 0h-1.7v-.8h1.7v.8zm-3.3 0h-1.7v-.8h1.7v.8zm-3.4 0h-1.7v-.8h1.7v.8zm-3.4 0H7.4v-.8h1.7v.8zm-3.4 0H4v-.8h1.7v.8zm-3.4 0H1v-1.2h.8v.4h.5zm-.5-2.9H1v-1.7h.8v1.7zm0-3.4H1V21h.8v1.7zm0-3.4H1v-1.7h.8v1.7zm0-3.4H1v-1.7h.8v1.7zm0-3.4H1v-1.7h.8v1.7zm0-3.4H1V7.4h.8v1.7zm0-3.4H1V4h.8v1.7zm0-3.4H1V1.1h1.3v.8h-.5zM26 1.9h-1.7v-.8H26v.8zm-3.4 0H21v-.8h1.7v.8h-.1zm-3.4 0h-1.7v-.8h1.7v.8zm-3.3 0h-1.7v-.8h1.7v.8zm-3.4 0h-1.7v-.8h1.7v.8zm-3.4 0H7.4v-.8h1.7v.8zm-3.4 0H4v-.8h1.7v.8zm23.3.4h-.8v-.4h-.5v-.8H29zm0 23.8h-.8v-1.7h.8v1.7zm0-3.4h-.8V21h.8v1.7zm0-3.4h-.8v-1.7h.8v1.7zm0-3.4h-.8v-1.7h.8v1.7zm0-3.4h-.8v-1.7h.8v1.7zm0-3.4h-.8V7.4h.8v1.7zm0-3.4h-.8V4h.8v1.7z"/></g></g><g id="Layer_8" class="st1"><g class="st3"><path class="st4" d="M17.3 26.4c-.1 0-.2 0-.2-.1L12 21.2c-.1-.1-.1-.3 0-.5.1-.1.3-.1.5 0l5.1 5.1c.1.1.1.3 0 .5-.1 0-.2.1-.3.1z"/><path class="st4" d="M12.3 26.4c-.1 0-.2 0-.2-.1-.1-.1-.1-.3 0-.5l5.1-5.1c.1-.1.3-.1.5 0 .1.1.1.3 0 .5l-5.1 5.1c-.2 0-.2.1-.3.1z"/></g><g class="st3"><path class="st4" d="M26.5 26.4c-.1 0-.2 0-.2-.1l-5.1-5.1c-.1-.1-.1-.3 0-.5.1-.1.3-.1.5 0l5.1 5.1c.1.1.1.3 0 .5-.2 0-.3.1-.3.1z"/><path class="st4" d="M21.4 26.4c-.1 0-.2 0-.2-.1-.1-.1-.1-.3 0-.5l5.1-5.1c.1-.1.3-.1.5 0s.1.3 0 .5l-5.1 5.1c-.1 0-.2.1-.3.1z"/></g><g class="st3"><path class="st4" d="M14.4 12.7l-3.9-3.9c-.1-.1-.1-.3 0-.5.1-.1.3-.1.5 0l3.4 3.4 7.5-7.5c.1-.1.3-.1.5 0 .1.1.1.3 0 .5l-8 8z"/></g><g class="st3"><path class="st4" d="M8.2 26.4c-.1 0-.2 0-.2-.1l-5.1-5.1c-.1-.1-.1-.3 0-.5.1-.1.3-.1.5 0l5.1 5.1c.1.1.1.3 0 .5-.1 0-.2.1-.3.1z"/><path class="st4" d="M3.2 26.4c-.1 0-.2 0-.2-.1-.1-.1-.1-.3 0-.5l5-5.1c.1-.1.3-.1.5 0 .1.1.1.3 0 .5l-5.1 5.1c-.1 0-.2.1-.2.1z"/></g><g class="st3"><path class="st4" d="M29 16.7h-1.3V16H29v.7zm-2.7 0H25V16h1.3v.7zm-2.7 0h-1.3V16h1.3v.7zm-2.6 0h-1.3V16H21v.7zm-2.7 0H17V16h1.3v.7zm-2.6 0h-1.3V16h1.3v.7zm-2.7 0h-1.3V16H13v.7zm-2.7 0H9V16h1.3v.7zm-2.6 0H6.3V16h1.3v.7h.1zm-2.7 0H3.7V16H5v.7zm-2.6 0H1V16h1.3v.7h.1z"/></g></g><g id="Layer_9" class="st1"><g class="st3"><path class="st4" d="M12.8 26.7H1.4v-14h2.3v.6H2V26h10.8z"/></g><g class="st3"><path class="st4" d="M28.6 26.7H17.3V26H28V13.3h-1.7v-.6h2.3z"/></g><g class="st3"><path class="st4" d="M16.5 28.1h-3c-.7 0-1.3-.8-1.3-1.7h.7c0 .6.3 1.1.6 1.1h3c.3 0 .6-.4.6-1.1h.7c0 .9-.6 1.7-1.3 1.7z"/></g><g class="st3"><path class="st4" d="M15.3 24.8H3.4V11.1h9.4c1.4 0 2.6 1.2 2.6 2.6v11.1h-.1zm-11.2-.6h10.6V13.8c0-1.1-.9-1.9-1.9-1.9H4.1v12.3z"/><path class="st4" d="M11.7 15.1h-5c-.2 0-.3-.1-.3-.3s.1-.3.3-.3h5c.2 0 .3.1.3.3s-.1.3-.3.3zm0 3.2h-5c-.2 0-.3-.1-.3-.3 0-.2.1-.3.3-.3h5c.2 0 .3.1.3.3 0 .2-.1.3-.3.3zm0 3.3h-5c-.2 0-.3-.1-.3-.3 0-.2.1-.3.3-.3h5c.2 0 .3.1.3.3 0 .1-.1.3-.3.3z"/></g><g class="st3"><path class="st4" d="M26.6 24.8H14.7V13.6c0-1.4 1.2-2.6 2.6-2.6h9.4v13.8h-.1zm-11.3-.6h10.6V11.8h-8.7c-1.1 0-1.9.9-1.9 1.9v10.5z"/><path class="st4" d="M23.3 15.1h-5c-.2 0-.3-.1-.3-.3s.1-.3.3-.3h5c.2 0 .3.1.3.3 0 .2-.2.3-.3.3zm0 3.2h-5c-.2 0-.3-.1-.3-.3 0-.2.1-.3.3-.3h5c.2 0 .3.1.3.3 0 .2-.2.3-.3.3zm0 3.3h-5c-.2 0-.3-.1-.3-.3 0-.2.1-.3.3-.3h5c.2 0 .3.1.3.3 0 .1-.2.3-.3.3z"/></g><g class="st3"><path class="st4" d="M15.3 5.2c-.2 0-.3-.1-.3-.3V1.4c0-.2.1-.3.3-.3s.3.1.3.3v3.4c0 .3-.1.4-.3.4zM7.2 8.7c-.1 0-.2 0-.2-.1L4.5 6.1c-.1-.1-.1-.3 0-.4.1-.1.3-.1.5 0l2.5 2.5c.1.1.1.3 0 .5-.2-.1-.2 0-.3 0zm16.3-.1c-.1 0-.2 0-.2-.1-.1-.1-.1-.3 0-.5l2.4-2.4c.1-.1.3-.1.5 0s.1.3 0 .5l-2.4 2.4c-.1 0-.2.1-.3.1z"/></g></g><path class="st5" d="M11.866 24.255l-.035-.002a.299.299 0 01-.243-.188l-1.195-3.058c-.054-.14-.11-.284-.196-.372-.106-.11-.285-.169-.474-.232-1.138-.378-1.787-.903-2.011-1.613-.176-.559-.044-1.149.108-1.654l.055-.18c.127-.411.247-.799.224-1.184-.022-.36-.236-.782-.59-.856a1.573 1.573 0 00-.252-.021c-.195-.006-.415-.013-.625-.137-.439-.258-.548-.837-.292-1.549.131-.363.245-.733.092-.928-.14-.097-.865-.462-1.506-.771-.148-.071-.211-.25-.14-.398s.25-.211.398-.14c1.542.742 1.639.851 1.681.898.421.472.18 1.141.036 1.541-.12.334-.156.721.033.832.078.046.2.05.342.055.108.003.231.007.354.033.651.136 1.028.809 1.064 1.404.03.493-.112.953-.249 1.397l-.054.175c-.132.438-.236.9-.11 1.303.162.514.687.913 1.605 1.217.263.087.532.177.74.392.169.175.255.394.323.57l.991 2.536c.714-1.029 2.392-3.448 2.574-3.707.155-.22.333-.366.504-.506.1-.082.195-.16.286-.253l-.007-.023-.02-.073c-.183-.783-.926-1.411-1.728-1.461-.064-.004-.129-.005-.194-.007-.311-.007-.664-.015-.951-.255a1.435 1.435 0 01-.271-.331c-.029-.044-.057-.088-.089-.13-.401-.517-1.268-.422-2.032-.339l-.121.013c-.103.01-.275.03-.444-.04-.339-.14-.432-.522-.472-.685a43.541 43.541 0 01-.555-2.626c-.064-.353-.11-.727.073-1.069.119-.223.322-.401.62-.546.348-.169.715-.251 1.07-.33.226-.05.438-.097.643-.165.416-.138.918-.459.963-.913.06-.597-.664-1.074-1.213-1.382-.093-.052-.267-.149-.335-.352a.64.64 0 01.03-.426c.188-.495.541-.867.882-1.227.16-.168.311-.328.444-.497.37-.471.545-1.164.197-1.509a.298.298 0 01.42-.424c.614.607.391 1.618-.147 2.302a8.074 8.074 0 01-.48.539c-.314.332-.611.645-.757 1.028a.23.23 0 00-.007.019l.045.026c.443.248 1.621.907 1.515 1.962-.073.738-.756 1.218-1.37 1.42-.233.077-.471.13-.701.181-.336.075-.654.145-.939.284-.178.087-.298.185-.355.291-.093.173-.058.421-.011.681.156.867.34 1.738.548 2.589.053.218.098.266.12.275.028.011.112.002.152-.002l.12-.013c.874-.095 1.963-.214 2.568.566.042.054.08.111.117.169.052.08.102.155.155.2.126.105.346.11.58.116a2.54 2.54 0 012.49 1.928l.013.046c.032.112.098.344-.069.528-.138.152-.28.269-.405.372a1.997 1.997 0 00-.395.389c-.232.33-2.891 4.164-2.891 4.164a.287.287 0 01-.244.133zm9.755-5.309a.46.46 0 01-.118-.014c-.251-.061-.445-.223-.518-.432-.081-.233.001-.448.06-.604l.015-.04a1.836 1.836 0 00-.166-1.589 1.835 1.835 0 00-1.366-.83l-.137-.011c-.506-.039-1.199-.092-1.359-.93-.219-1.153.633-1.624 1.293-1.879l.121-.045c.29-.108 1.172-.435 1.294-.762.014-.037.017-.074-.016-.134-.03-.055-.222-.035-.295-.028a2.476 2.476 0 00-.275.058c-.428.104-1.142.277-1.416-.256a.573.573 0 01-.023-.515c.161-.36.664-.519 1.124-.639l.147-.04c.452-.129.878-.251 1.196-.543.095-.087.186-.189.282-.298.255-.287.543-.611.983-.702.076-.016.155-.023.233-.029a.74.74 0 00.221-.038c.172-.076.205-.256.238-.65.032-.383.073-.86.503-1.123a.298.298 0 01.312.508c-.161.098-.19.317-.22.665-.033.388-.078.919-.591 1.146-.146.064-.288.076-.414.087-.054.005-.109.008-.162.019-.245.051-.446.276-.657.514a4.719 4.719 0 01-.325.342c-.421.386-.937.534-1.435.676l-.161.044c-.579.151-.706.256-.73.305.068.112.584-.012.753-.053.136-.033.254-.061.355-.072.197-.02.658-.066.878.334.112.204.13.422.052.63-.191.513-.904.838-1.646 1.113l-.113.043c-.772.298-1.031.638-.921 1.211.068.36.256.404.818.447l.143.011a2.442 2.442 0 011.818 1.105c.392.619.477 1.43.222 2.117l-.016.043c-.021.055-.064.169-.054.197a.183.183 0 00.095.048c.26.006 1.195-.958 1.779-1.766.142-.196.452-.678.265-.91a.846.846 0 00-.223-.162c-.069-.041-.138-.082-.203-.13a1.311 1.311 0 01-.494-1.302c.1-.474.76-.882.892-.959a.298.298 0 01.408.107l.473.809c.043.074.089.165.138.263.115.231.308.617.474.661.131.035.329-.092.502-.204.054-.034.105-.068.155-.097.336-.198.678-.39 1.019-.569a.298.298 0 11.278.528c-.332.175-.666.361-.993.555a2.425 2.425 0 00-.134.085c-.25.162-.592.382-.98.28-.427-.113-.664-.589-.855-.972-.043-.085-.082-.165-.119-.228l-.312-.534c-.183.141-.341.301-.362.398a.712.712 0 00.265.699c.048.036.1.066.151.096.126.075.269.159.383.301.226.279.366.79-.246 1.635-.25.348-1.493 2.009-2.283 2.009z"/><path class="st5" d="M9.884 12.563a.298.298 0 01-.052-.592l1.172-.207a.299.299 0 01.104.588l-1.172.207a.312.312 0 01-.052.004zm9.545-2.689a.299.299 0 01-.074-.587l1.008-.262a.299.299 0 01.15.578l-1.008.262a.404.404 0 01-.076.009zm-5.258 12.715a.299.299 0 01-.283-.392l.385-1.161a.299.299 0 01.566.188l-.385 1.161a.298.298 0 01-.283.204z"/><path class="st6" d="M10.324 25.382a.296.296 0 01-.138-.034 11.652 11.652 0 01-6.272-10.353c0-6.438 5.238-11.677 11.677-11.677.206 0 .411.005.614.016a.298.298 0 11-.032.596c-.193-.01-.387-.015-.583-.015-6.109 0-11.08 4.97-11.08 11.08 0 4.14 2.281 7.904 5.952 9.825a.298.298 0 01-.138.562zm5.267 1.289a.297.297 0 110-.596c6.109 0 11.08-4.97 11.08-11.08 0-4.005-2.172-7.711-5.67-9.672a.298.298 0 11.292-.52 11.7 11.7 0 015.975 10.192c0 6.438-5.239 11.676-11.677 11.676z"/><path class="st6" d="M13.724 6.8l-.41-.433 2.871-2.721L13.544.854l.434-.41 3.05 3.225zm4.366 22.756l-3.304-3.13 3.05-3.226.434.41-2.641 2.792 2.872 2.721z"/></svg>