<svg width="37" height="37" xmlns="http://www.w3.org/2000/svg"><g fill="#E1E9EC" fill-rule="evenodd"><path d="M17.472 4.243a.841.841 0 01-.33-.07.793.793 0 01-.402-1.054L17.768.866a.807.807 0 011.063-.398.792.792 0 01.403 1.052l-1.028 2.255a.803.803 0 01-.734.468z"/><path d="M19.523 4.233a.803.803 0 01-.733-.468l-1.024-2.244A.792.792 0 0118.17.47a.805.805 0 011.063.398l1.023 2.244a.794.794 0 01-.732 1.122z"/><path d="M33.783 26.522H3.217a.801.801 0 01-.804-.795V3.447a.8.8 0 01.804-.796h30.566c.442 0 .804.357.804.796v22.28a.802.802 0 01-.804.795zM4.022 24.931h28.956V4.243H4.022V24.93z"/><path d="M36.196 26.522H.804A.801.801 0 010 25.727c0-.438.36-.796.804-.796h35.392c.442 0 .804.358.804.796a.802.802 0 01-.804.795z"/><path d="M2.547 37a.794.794 0 01-.732-1.124L6.589 25.4a.81.81 0 011.065-.4.794.794 0 01.402 1.053L3.282 36.531a.805.805 0 01-.735.469zm31.906 0a.807.807 0 01-.735-.47l-4.774-10.48a.793.793 0 01.402-1.052.808.808 0 011.065.398l4.774 10.48A.797.797 0 0134.453 37zM29.76 23.34h-8.847a.802.802 0 01-.804-.796V13.79c0-.321.196-.611.497-.735a.814.814 0 01.877.172l8.847 8.752c.232.23.301.569.174.868a.804.804 0 01-.743.491zm-8.043-1.592h6.102l-6.102-6.036v6.036z"/></g></svg>