<svg version="1.1" id="Layer_1" xmlns="http://www.w3.org/2000/svg" x="0" y="0" viewBox="0 0 30 30" xml:space="preserve"><style>.st5{fill:#f47d09}.st6{fill:#1658ff}</style><path d="M21.316 12.638c.589 0 1.074.47 1.115 1.065.003.017.003 1.904.003 3.6h.006c.042-.598.523-1.068 1.115-1.068.589 0 1.071.47 1.115 1.065l.003.714a1.125 1.125 0 011.096-.924c.589 0 1.071.468 1.115 1.062 0 .014 0 .551.003 1.043.097-.528.551-.93 1.096-.93.589 0 1.071.468 1.115 1.062l.003 8.666h-7.374c-.224-2.443-3.127-4.289-5.794-5.578-.924-.448.692-2.169 2.606-1.201 1.057.537 1.682.924 1.682.924l-.019-8.433a1.13 1.13 0 011.114-1.067z" fill="#fff"/><path class="st5" d="M5.985 5.174L3.389 2.582.87 5.102l-.392-.391L3.389 1.8l2.987 2.982z"/><path class="st5" d="M3.106 2.22h.553v.553h-.553zm6.351 16.147l-.015-.553a5.56 5.56 0 001.047-.127l.118.541a6.158 6.158 0 01-1.15.139zm-1.155-.075a6.207 6.207 0 01-1.122-.29l.188-.52c.33.12.674.208 1.021.264l-.087.546zm3.409-.417l-.217-.509c.323-.138.635-.307.927-.504l.309.459a6.055 6.055 0 01-1.019.554zm-5.578-.369a6.227 6.227 0 01-.937-.682l.366-.415c.265.233.551.443.852.621l-.281.476zm7.492-.917l-.389-.394c.251-.247.479-.519.678-.807l.455.315a6.15 6.15 0 01-.744.886zm-9.221-.609a6.241 6.241 0 01-.623-.977l.493-.252c.16.313.35.612.566.889l-.436.34zm10.533-1.288l-.506-.224c.142-.321.255-.657.334-.999l.539.125a6.183 6.183 0 01-.367 1.098zm-11.584-.766a6.184 6.184 0 01-.219-1.138l.551-.053c.034.35.101.698.199 1.035l-.531.156zm12.106-1.48l-.553-.022c.003-.071.004-.143.005-.215l.001-.883.553.001-.001.883c0 .079-.001.157-.005.236zm-12.352-.794v-1.111h.553v1.111h-.553zm12.36-1.434l-.553-.001.002-1.108.553.001-.002 1.108zM3.66 9.431h-.554v-1.11h.554v1.11zm17.957-.515h-.553l-.001-.691a3.006 3.006 0 00-.035-.372l.546-.088c.023.144.037.292.042.439l.001.04v.672zm-6.14-.897l-.552-.037a3.278 3.278 0 01.331-1.164l.496.245a2.796 2.796 0 00-.273.929l-.002.027zM3.66 7.211h-.554v-1.11h.554v1.11zm17.031-.302a2.82 2.82 0 00-.648-.766l.352-.427c.313.258.574.566.776.916l-.48.277zm-4.341-.65l-.378-.404a3.348 3.348 0 011.01-.65l.212.511a2.81 2.81 0 00-.844.543zm2.817-.605a2.834 2.834 0 00-.992-.148l-.018-.553c.406-.017.808.047 1.189.177l-.179.524zM3.66 4.991h-.554v-1.11h.554v1.11zm17.404 5.035h.553v.552h-.553z"/><path class="st6" d="M21.413 28.333c-.017-1.944-1.867-3.779-5.654-5.61-.256-.124-.406-.333-.423-.59-.024-.357.228-.756.658-1.041.744-.492 1.722-.516 2.616-.065.554.28.989.519 1.28.685-.021-7.934-.019-7.955-.018-7.968.052-.743.663-1.325 1.392-1.325.727 0 1.337.58 1.391 1.32.001.012.003.038.004 6.266h-.553c0-2.113-.002-6.135-.003-6.239a.854.854 0 00-.838-.793.857.857 0 00-.839.809c-.001.118.021 8.33.021 8.413l.001.498-.424-.262c-.006-.004-.63-.388-1.662-.911-1.058-.535-1.845-.111-2.061.032-.282.186-.42.414-.411.542.001.023.005.077.112.129 3.995 1.931 5.947 3.927 5.967 6.103l-.556.007z"/><path class="st6" d="M24.895 18.185h-.553c0-.028-.001-.755-.003-.816a.856.856 0 00-.839-.798.857.857 0 00-.839.809l-.552-.038c.052-.743.663-1.324 1.392-1.324.727 0 1.337.58 1.391 1.32.002.045.003.839.003.847z"/><path class="st6" d="M26.555 20.053l-.003-1.833a.855.855 0 00-.839-.795.848.848 0 00-.83.727l-.005 1.236c-.002.614-.003.642-.004.661l-.552-.037.276.019-.276-.011.003-.634c.005-1.281.007-1.288.013-1.325a1.4 1.4 0 011.376-1.19c.727 0 1.337.58 1.391 1.32.001.013.003.039.004 1.862h-.554z"/><path class="st6" d="M29.322 28.399h-.553c0-.088-.001-8.866-.003-9.007a.854.854 0 00-.838-.792.857.857 0 00-.839.809l-.552-.038c.052-.742.663-1.324 1.392-1.324.727 0 1.337.58 1.391 1.32l.002 9.032z"/><path class="st6" d="M21.598 27.777h7.47v.553h-7.47z"/></svg>