<svg width="20" height="35" xmlns="http://www.w3.org/2000/svg"><g fill="#E1E9EC" fill-rule="evenodd"><path d="M9.997 34.95a.8.8 0 01-.669-.36l-7.2-10.938a.778.778 0 01-.106-.63l2-7.856a.79.79 0 01.972-.576c.428.108.688.54.577.967l-1.912 7.52 6.338 9.627 6.337-9.628-1.912-7.519A.797.797 0 0115 14.59a.795.795 0 01.971.576l2 7.856a.788.788 0 01-.105.63l-7.2 10.938a.793.793 0 01-.67.36z"/><path d="M9.997 33.458a.8.8 0 01-.8-.795V19.936a.8.8 0 011.6 0v12.727a.8.8 0 01-.8.795z"/><path d="M9.997 20.731a2.397 2.397 0 01-2.4-2.386 2.396 2.396 0 012.4-2.387c1.323 0 2.4 1.071 2.4 2.387a2.398 2.398 0 01-2.4 2.386zm0-3.182a.8.8 0 00-.8.796.8.8 0 001.6 0 .801.801 0 00-.8-.796zm7.2-2.386h-14.4a.796.796 0 01-.794-.698L.353.942a.797.797 0 01.7-.886.804.804 0 01.891.693L3.51 13.574h12.981L18.058.749a.813.813 0 01.894-.693.8.8 0 01.698.886L18 14.465a.816.816 0 01-.803.698z"/></g></svg>