<svg width="36" height="24" xmlns="http://www.w3.org/2000/svg"><g fill="#E1E9EC" fill-rule="evenodd"><path d="M21.599 9.759l-6.396-1.013a.8.8 0 01-.677-.903l.983-6.208a.8.8 0 01.923-.65l6.396 1.013c.442.07.745.475.677.903l-.984 6.208a.798.798 0 01-.922.65zM16.248 7.32l4.797.76.738-4.656-4.798-.76-.737 4.656z"/><path d="M5.546 2.443l9.594 1.52-.245 1.552L5.3 3.995l.246-1.552zm17.59 2.787l9.595 1.519-.246 1.552-9.595-1.52.246-1.552z"/><path d="M33.072 9.985c-1.324-.21-2.233-1.425-2.03-2.708.204-1.284 1.444-2.158 2.768-1.948 1.32.209 2.233 1.424 2.03 2.708-.204 1.283-1.444 2.158-2.768 1.948zm.492-3.104a.8.8 0 00-.923.65.801.801 0 00.677.902.804.804 0 00.923-.65.8.8 0 00-.677-.902zM4.288 5.426C2.966 5.216 2.055 4 2.258 2.718 2.462 1.434 3.703.56 5.026.77c1.322.21 2.233 1.424 2.03 2.708C6.852 4.76 5.61 5.635 4.288 5.426zm.492-3.104a.8.8 0 00-.923.65.8.8 0 00.677.902.8.8 0 00.922-.65.8.8 0 00-.676-.902zm27.702 19.801a.8.8 0 01-.676-.902c.998-6.3-2.785-12.39-8.99-14.483a.787.787 0 01-.506-1.002.8.8 0 011.024-.482c6.954 2.347 11.188 9.167 10.07 16.22a.797.797 0 01-.922.65zM1.03 17.142a.8.8 0 01-.677-.903C1.47 9.186 7.607 4.004 14.945 3.925a.802.802 0 01.826.774.79.79 0 01-.791.796C8.43 5.57 2.95 10.194 1.952 16.49a.798.798 0 01-.923.65zm19.271 5.986a.815.815 0 01-.29-.108l-3.462-2.065-3.928.894a.832.832 0 01-.844-.304.766.766 0 01-.039-.873l5.48-8.727c.34-.54 1.324-.384 1.478.234l2.467 9.801a.766.766 0 01.094.508c-.069.432-.484.716-.94.647a.032.032 0 00-.016-.007zm-3.498-3.787a.897.897 0 01.295.105l2.076 1.238-1.587-6.304-3.459 5.508 2.358-.534a.832.832 0 01.317-.013z"/></g></svg>