<svg width="36" height="38" xmlns="http://www.w3.org/2000/svg"><g fill="#E1E9EC" fill-rule="evenodd"><path d="M20.186 12.873c-2.557-.544-4.192-3.08-3.645-5.654.547-2.574 3.073-4.227 5.63-3.683 2.553.543 4.191 3.08 3.644 5.654-.547 2.574-3.076 4.225-5.63 3.683zm1.653-7.781c-1.706-.363-3.388.739-3.753 2.455-.364 1.717.724 3.407 2.43 3.77 1.707.362 3.388-.74 3.753-2.456.365-1.716-.723-3.406-2.43-3.77zM18.2 22.21a14.025 14.025 0 01-7.765-4.593.798.798 0 01.079-1.122.783.783 0 011.113.075 12.483 12.483 0 006.904 4.078c6.818 1.45 13.553-2.955 15.012-9.82a.793.793 0 01.938-.614c.424.09.699.513.608.942C33.448 18.883 25.87 23.84 18.2 22.21z"/><path d="M21.84 5.092a.793.793 0 01-.608-.942l.661-3.113a.793.793 0 01.939-.614c.425.09.698.513.607.943l-.661 3.112a.794.794 0 01-.939.614zM.87 31.537a.794.794 0 01-.476-1.24L16.506 7.7a.786.786 0 011.103-.185.798.798 0 01.18 1.109L1.679 31.22a.79.79 0 01-.808.316zm29.369 6.243a.786.786 0 01-.609-.617L24.103 9.964a.797.797 0 01.616-.939.787.787 0 01.932.618l5.528 27.198a.796.796 0 01-.94.939z"/></g></svg>