<svg xmlns="http://www.w3.org/2000/svg" viewBox="0 0 100 47.8"><path d="M92.9 10.6c-3.4-.8-7.3-1.9-10.7-3.3l-4.6 2.1v-.9C77.6 7.1 76.4 6 75 6s-2.6 1.1-2.6 2.6v.9l-4.6-2.1c-3.5 1.4-7.4 2.5-10.8 3.3-1.4.3-1.6.7-1.6 1 0 .5 1.6.5 1.6.5h15.3v2.3H27.1v-2.3h15.3s1.6 0 1.6-.5c0-.3-.2-.7-1.6-1-3.4-.8-7.3-1.9-10.7-3.3l-4.6 2.1v-1c0-1.4-1.1-2.6-2.6-2.6S21.9 7 21.9 8.5v.9l-4.6-2.1C13.9 8.7 10 9.8 6.6 10.6c-1.4.3-1.6.7-1.6 1 0 .5 1.6.5 1.6.5h15.3V15c0 1.3.9 2.3 2.2 2.5h16.3v3.1c-7.6 3.5-12.9 11.2-12.9 20.2 0 .8.7 1.5 1.5 1.5s1.5-.7 1.5-1.5c0-7.3 4.1-13.7 10.2-16.9.4.7 1.2 1.1 2.1 1.1h13.7c.9 0 1.7-.5 2.1-1.1 6.1 3.2 10.2 9.6 10.2 16.9 0 .8.7 1.5 1.5 1.5s1.5-.7 1.5-1.5c0-8.9-5.3-16.6-12.9-20.2v-3.1h16.6c1.2-.2 2.2-1.2 2.2-2.5v-2.8H93s1.6 0 1.6-.5c-.1-.4-.3-.8-1.7-1.1z" fill="#041e4b"/></svg>